<svg preserveAspectRatio="xMidYMid meet" data-bbox="6 62.4 188 65.144" xmlns="http://www.w3.org/2000/svg" width="200" height="200" viewBox="6 62.4 188 65.144" role="presentation" aria-hidden="true">
    <g>
        <path d="M69.7 83.9c1.2 0 2.4-.1 3.6-.1 1.8 1 3.6-.4 5.4-.2 0-.1 0-.2.1-.3h.1c0 .1-.1.2-.1.3 2.8 1.8 5.1 0 7.5-.9.6-.1 1.3-.3 1.9-.4.2-.1.3-.2.5-.3.1 0 .1.1.2.1.6-.5 1.1-1 1.7-1.4.1 0 .1-.1.2-.2.3 0 .6 0 1 .1 0 .4.1.6.6.5 1 .2 1.4 0 1.2-1.1l.2.1c.2-.2.4-.4.4-.7.1-.2.2-.4.2-.5-2 0-4.1-1.2-5.8.9.1.1.2.2.3.2h-.5c-.2-.1-.3-.2-.5-.2h.5c-1-1.1-2.1-1-3.3-.2.2.3.3.6.5.8-.1.1-.2.1-.3.2-.2.2-.4.5-.3.7-.2-.1-.3-.2-.5-.3-.3-.1-.6-.1-.9-.1-1.1.3-2.4-.1-3.3 1-.3.1-.3.2-.3.4h-2.4c-1 .1-2 .3-3.1.4-1.6 0-3.3-.5-4.9.4-1.1-.3-2-.1-2.9.8 1.1 0 2 .6 3 0z"></path>
        <path d="M12.5 110c1.5.7 2.7.6 3.9.1-1.3-.2-2.5-.6-3.9-.1z"></path>
        <path d="M82.4 80.6c.1-.2.1-.3 0-.5-1.1-.1-2.3-.1-3.4-.2.2.2.3.4.5.6 1 .1 1.9.1 2.9.1z"></path>
        <path d="M68.9 96.4c-1.3-.1-2.6.1-3.6.9 1.1-.6 2.8 1.1 3.6-.9z"></path>
        <path d="M67.5 99.2c-.5-1-1.5-.5-2.3-.8-.7.1-1.3.2-2 .3v.6c1.4-.1 2.9-.1 4.3-.1z"></path>
        <path d="M85.4 78c.1-.1 0-.4 0-.5-.6-.4-1.1-.3-1.5.2-1.2-.6-2.3-.4-3.3.5 1.1 0 2.2-.1 3.2-.1.5.2 1.1.4 1.6-.1z"></path>
        <path d="M106.5 72.7h-.1.1z"></path>
        <path d="M193.7 113.6s-.1 0 0 0c-.1 0 0 0 0 0z"></path>
        <path d="M60.2 97.3c-.9-.5-1.6-.5-2.7-.1 1 .5 1.7.6 2.7.1z"></path>
        <path d="M30.9 93.8v.4c1.2.1 2.4.1 3.6.2 2.3-.1 4.7-.3 7-.4-2.3-.2-4.7-1.3-7-.1-1.2 0-2.4 0-3.6-.1z"></path>
        <path d="M56.3 97.6c-1-.3-1.8-.4-3.2 0 1.4.4 2.2.6 3.2 0z"></path>
        <path d="M6 109.9c.8.1 1.5.4 2.1-.3-.7-.3-1.3-.4-2.1.3z"></path>
        <path d="M194 113.9v-.1h-.1l-.1-.1h-1.1v.1s-.1 0 0 .1v.3c-.1 0 0 0 0 .1h.1s.1 0 0 0c0 0-.1 0 0 0s.1 0 .2-.1h.5-.1.4c.2-.2.2-.2.2-.3zm-.6.3zm.1-.4zm.2.2s-.1 0 0 0c-.1 0-.1 0 0 0 0-.1.1-.1 0 0 .1-.1.1-.1 0 0 .1-.1.1-.1.1 0 0-.1 0 0-.1 0 .1 0 .1 0 0 0 .1 0 0 0 0 0zm-.9.2zm-.1 0zm1.2-.2c0-.1 0-.1 0 0zm-.7-.2c-.1 0 0 .1 0 0-.1.1-.1.1 0 0-.1.1-.1.1 0 0-.1.1-.1.1 0 0-.1 0-.1 0 0 0-.1 0-.1 0 0 0-.1 0-.1 0 0 0zm0 0zm.1.1s-.1 0 0 0c-.1 0-.1 0 0 0-.1 0 0 0 0 0zm-.3 0zm0 .1zm0 .1zm.1-.1zm0 .1zm.1-.1zm-.3 0zm.1.1zm.2 0zm-.3-.1zm0 0zm.3.1zm.3 0c0-.1 0-.1 0 0zm0-.1zm-.3-.1zm-.4 0c.1 0 .1 0 0 0zm.5.1zm.3 0zm-.2-.1zm-.5-.1zm-.1.1zm.5.2zm.1 0c0 .1 0 .1 0 0 0 .1 0 0 0 0zm.1 0s-.1 0 0 0zm0 0zm.1 0zm0 0zm.1-.4zm-.1.2zm-.6-.1zm-.3.2zm0 .2zm.4.2c.1 0 .1-.1 0 0 .1-.1.1-.1 0 0 .1-.1.1-.1 0 0zm.2-.3zm.2.1zm0 0c.1 0 .1-.1 0 0 .1-.1.1 0 0 0zm-.3-.5zm-.6.6zm.2-.1zm0 0zm.4.2zm.5-.3zm.1 0c.1 0 .1 0 0 0 .1 0 .1 0 0 0 .1 0 0 0 0 0zm-.3-.4zm-.8.1c0 .1 0 .1 0 0zm0 .5zm.3.1zm.4-.2c.1 0 .1 0 0 0 .1 0 .1 0 0 0 .1 0 .1 0 0 0zm.3 0z"></path>
        <path d="M105.2 76.9c-.2.1-.4.1-.6.2-.4.7-1.5 0-1.9.9.9-.1 2.3 1 2.5-1.1z"></path>
        <path d="M120.3 77.8c.7-.1.6-.9.9-1.2-.7.2-1.6-.5-2.2.5-1.2.1-1.5 1.3-2.5 1.8-.9-.2-1.5.2-1.9 1.1-1.2 1.3-3.6.8-4.3 2.9-.9-.1-1.7-.2-2.4.5-1.2-.2-2.2-.1-2.6 1.3-1.5.4-3 .8-4.4 1.1-.9.2-1.9.5-2.8.7-.7-.1-1.4-.1-1.9.5-1.2.6-3.1-.7-3.7 1.4 1.3 0 2.7.3 3.7-.9h.1c1.3-.9 2.6.8 3.9.1.2 0 .3-.1.3-.2 1-.3 2 .1 2.9 0 1-.1 2.2-.1 2-1.6l.2.2c.7.2 1.3.2 2 0 .6-.3 1.2-.5 1.4-1.3 0-.1 0-.1-.1-.2h2.3c.1-.4.1-.7.2-1.1 1.5-1.5 3.9-1.1 5.3-2.8 1.3-1 2.4-1.9 3.6-2.8zm-15.1 7.7z"></path>
        <path d="M99 78c.2-.2.4-.4.6-.7-1.2 0-2.5-.5-3.7.4.9 1.4 2.1-.2 3.1.3z"></path>
        <path d="M103.5 73.3c1.3 1 1.5 0 1.7-1 .4.1.8.2 1.1.3-.8-.9.5-1.4.5-2.2 1.3-.1 2.6-.2 3.2-1.6.8-.2 2.4.9 2.2-1.2 1.5.5 2.8-.3 4.2-.5.5 0 1.1.2 1.3-.5 1.3-1.3 4.2.2 4.5-2.7.8-.3 1.9.6 2.8-1.5-1.4 1.1-2.4.7-3.4.9-1.8-.1-2.8 1.6-4.3 2.2-.7.2-1.3.3-2 .5-1 .5-2.2 0-3.1 1-1.1.4-2.5.3-3.1 1.7-.9 1.3-2.9.1-3.7 1.6-4.3 1.2-8.4 2.7-11.5 6.2 3.6.2 6.4-2.2 9.6-3.2z"></path>
        <path d="M107.9 74.8c-.4.5-1.2.8-.9 1.7 2.7-.5 5.7.3 8-1.9.1-.1.1-.2.2-.3.6-.3 1.3-.6 1.9-.9h.4c1.1-1 2.1-1.9 3.2-2.9-1.5-.7-2.3 1.4-3.7 1-.7-.3-1.1.1-1.4.6 0 .1 0 .2.1.3-.1-.1-.2-.1-.3-.2-.2-.3-.4-.3-.6-.1-.5.4-.5.7-.4 1.2-.5-.2-1-.2-1.5-.1-.4.1-.8.3-1.2.5-.1 0-.2.1-.2.1-.7.3-1.4.2-2.1.3-.6.1-1.1.3-1.5.7z"></path>
        <path d="M130.1 65.4c.9.2 1.8-.3 1.6-1.1-.2-.8-1.1.3-1.7 0-.2.1-.4.3-.4.6.1.3.2.5.5.5z"></path>
        <path d="M92.6 76.4c-.8.7-1.9.2-3.2.8 2.2.2 2.2.2 3.2-.8z"></path>
        <path d="M124.4 66.8c-.4.3-.8.5-1.2.8-.1.5-.1.9.6.6 1.3.1 2.8 1 3.6-.9-1-.3-2.2.7-3-.5z"></path>
        <path d="M109.6 72.3c.8 0 1.6.1 2.4.1.1 0 .1-.1.2-.2V72c.6.2 1.1.2 1.7 0 1.1-.3.6-1.2.6-1.9-1 0-1.9 0-2.4 1-.9.3-1.9.3-2.5 1.2z"></path>
        <path d="M105.2 75.2c-1.1 0-2.5-.3-2.4 1.6.6-.1 1.1-.3 1.7-.4.2-.4.5-.8.7-1.2z"></path>
        <path d="M30.9 93.8c-.9-.2-1.7-.3-3.4.2 1.6.1 2.5.1 3.3.2.1-.1.1-.2.1-.4z"></path>
        <path d="M175.4 124.5c.1-.2.1-.3 0-.5-.4-.5-.9-1-1.6-1.3-.3-.2-.5-.5-.9-.6-.2-.1-.3-.2-.5-.2h-.1c-.2-.1-.3-.1-.5-.2 0 0-.1-.1-.1 0-.2 0-.4-.4-.7-.1-.1 0-.2 0-.3-.1-.1-.3-.3-.3-.5-.3-.1 0-.2 0-.3.1v.4s0 .1-.1.1c-.1-.1-.2-.3-.3-.4-.4-.1-.5.1-.4.4-.1.1-.2.1-.3.2-.3 0-.5 0-.4.3-.2.1-.3.3-.4.5-.2.1-.2.2-.2.4-.2.2-.4.2-.5.5.1.2.3.2.5.2h.1c-.1.1-.2.2-.4.1h-.3c0-.1-.1-.2-.1-.2l.1-.1c-.4-.3-.4.2-.5.3 0 0 0 .1-.1.1 0 .1 0 .2-.1.2 0 0 .1 0 .1.1h.2l.1.1-.1.1s0 .1-.1.1c.1.1.1.2.2.3h.2c.1 0 .2.1.3.1 0 .1 0 .1.1.1l.1.1c.1 0 .2 0 .3.1-.1 0-.1.1-.2.2v.1c0-.1-.1-.1-.1-.1-.1.1-.2.1 0 .2-.1-.1-.2-.3-.4-.2l-.1.1v.3s0 .1.1.1l.1.1.1.1.1.1h.1l.1.1h.3c.1.1.2.2 0 .4-.1.1-.3-.2-.4.1.4.1.9.1 1.3.2h.4c.1.1.2.1.2.1 0 .1.1.2.3.2.1.1.1 0 .2 0 0 0 .1 0 .1-.1 0 0 .1 0 .1-.1 0 0 0 .1.1.1s.3.1.4.1h.4c.2 0 .4.1.6 0 0-.1 0-.2-.1-.3-.2-.2-.4-.3-.7-.4 0-.1-.1-.1-.1-.2h.3l.1.1.2.2s.1 0 .1.1c.2.1.4.2.6.1.2.2.5.2.7.2.1-.3-.2-.2-.3-.4 0 0 0-.1.1-.1h.1c.3 0 .6 0 .9.2v-.1h.1c.1 0 .2-.1.3-.2.4-.2.7-.5.9-.8.2-.3.5-.5.5-.9.2-.2 0-.3 0-.5zm-1.6 2.1c-.1-.1-.1-.2-.2-.2.1 0 .1-.1.2-.1 0 0 0 .1.1.1-.1 0-.1.1-.1.2zm-.3-1c-.1 0-.1 0 0 0-.1 0-.2-.1-.3-.2h-.1c.2.1.3 0 .5 0 .1 0 .1 0 .1-.1.1 0 .3.1.4.1h.1v.2c-.1-.1-.2-.1-.3 0v-.1c-.2 0-.3 0-.4.1zm.7-.8zm-4.7-.6zm.5-.4s-.1 0 0 0c-.1 0 0 0 0 0zm1.5-.6zm-1.5.2zm.2 1.4zm-.6-1.4s0-.1 0 0c0-.1 0-.1 0 0 0-.1 0-.1 0 0l-.1-.1c.1 0 .1 0 .1-.1 0 .1 0 .1.1.2 0-.1 0-.1-.1 0 .1-.1.1-.1 0 0zm-1.3 2.5zm1.6-3.9zm-.1-.1c-.1 0-.1 0 0 0-.1-.1 0-.1 0 0zm2.4 3.8s0 .1 0 0c0 .1 0 0 0 0zm.2 0c.1 0 .1 0 0 0 .1 0 .1 0 0 0 .1 0 0 0 0 0zm2.9-1.7s.1 0 0 0c.1 0 .1 0 0 0zm-1.8-.9h.2c0 .1 0 .2.1.2-.1 0-.1-.1-.2-.1h-.1c-.1-.1 0-.1 0-.1zm-5.2-.4zm-1.4 1.5zm5.5 2.4zm-.2.3zm.5-.5c.1-.1 0-.2-.2-.2-.1.1-.1.2-.2.2-.2-.1-.5-.1-.7-.2 0-.1-.1-.1-.2-.1v-.1c.1.1.2.1.4 0 .2.3.5.2.7 0 .1 0 .3 0 .4.1v.2c.1 0-.1.1-.2.1z"></path>
        <path d="M167.9 126.5h-.1c0 .1.1 0 .1 0z"></path>
        <path d="M151.4 72.9c-.1 0-.1.1-.2.2h-.2v.1h.1s0 .1-.1.1c0 0 0 .1-.1.1h.1c.1 0 .1-.1.2-.1v-.1s.1 0 .1-.1c.1-.1.1-.1.1-.2z"></path>
        <path d="M149.9 72.6c0 .1 0 .1 0 0 0 .1 0 .1 0 0 0 .1 0 .1 0 0h.2v-.1c-.1.1-.1.1-.2.1z"></path>
        <path d="M192.5 104c.2-.1.3-.2.4-.4.1-.1.3-.3.3-.5v-.4c-.2-.2-.4-.4-.6-.5-.1-.1-.2-.2-.4-.3-.1-.1-.1-.1-.2 0-.1 0-.1 0-.2-.1-.1 0-.2-.2-.3 0l-.1.1v-.1c0-.2-.2-.1-.3-.1-.1 0-.2 0-.3.1-.2 0-.2.1-.2.2l-.1.1c-.1 0-.2 0-.2.2-.1.1-.2.2-.2.3-.1.1-.1.1-.1.2-.1.1-.2.1-.3.2h-.1c-.2-.1-.2.1-.2.2v.1h.1s0 .1.1.1h.2v.1h.2s-.1 0-.1.1c0 0-.1.1 0 .1 0-.1-.1-.1-.2-.1v.1l.1.1h.2s.1.1 0 .2c-.1 0-.1-.1-.2.1h.9c0 .1 0 .1.1.1h.8v-.1c-.1-.1-.2-.1-.3-.1v-.1h.2c.1 0 .2.3.4.1.1.2.2.2.4.2.1-.1-.1-.1-.1-.2h.4c-.2.1-.1.1-.1 0zm-.1-.1l-.1-.1s.1 0 .1-.1v.2zm-2.2.3c0-.1 0-.1 0 0-.1-.1-.1-.1 0 0l-.1-.1v-.1h.1v.2c.1-.1 0-.1 0 0zm.6-2.2zm-.2 1zm.3.3c0-.1 0-.1 0 0 0-.1 0-.1 0 0 0-.1 0-.1 0 0zm.2-.2s.1.1.1 0c-.1.1-.1 0-.1 0-.1 0-.1 0 0 0-.1 0-.1 0 0 0-.1 0-.1 0 0 0zm.3-.8c0 .1 0 .1 0 0l.1.1v.2c0 .1.1.1.2.1l-.1.1v-.1l-.2-.2v-.2c0 .1 0 .1 0 0 0 .1 0 .1 0 0 0 .1 0 0 0 0-.1 0 0 0 0 0zm-.6 0c0 .1.1.1.2.1v.2c-.1 0 0 .1 0 .2h.1-.2s-.1 0-.1.1v-.2c0-.1-.1-.1-.1-.1l-.1.1s.1 0 .1-.1v-.1c0-.1.1-.1.1-.2zm1.8 1.2zm.1-.4zm-1.3-1.1zm-.6-.1zm-.1.3zm.7-.3zm-1.2 1c-.1 0-.1 0 0 0zm-.3 0c.1 0 .1 0 0 0 .1 0 0 0 0 0zm0 0zm0 1zm1.9-.3h-.1c0-.1 0-.1-.1-.1v-.1c.1 0 .2 0 .2-.1h.2v.1h.2v.1s0-.1-.1-.1-.2 0-.2.1l-.1.1c.1-.1.1 0 0 0zm1.4-.9zm-.1-.1l-.1.1v.1s0-.1-.1-.1l.1-.1-.1-.1s0 .1.1.1h.1zm-.6-.3l-.1.1c0-.1 0-.1.1-.1zm-2.4.1zm0 .2s.1 0 0 0c.1 0 .1 0 0 0 .1.1 0 .1 0 .1v.2c0-.1-.1 0-.1 0v-.2l.1-.1zm-.7.5zm2.5.8c-.1.1-.1.1 0 0-.1.1-.1.1 0 0-.1.1-.1.1 0 0-.1.1-.1.1 0 0-.1.1-.1 0 0 0v-.2h.2l-.2.2z"></path>
        <path d="M149.4 73.7c-.1 0-.1.1 0 0-.1.1-.1.1 0 0 0 .1 0 .1.1.1-.1.1-.1 0-.1-.1.1.1.1 0 0 0z"></path>
        <path d="M146 68.6c-.1-.2-.3-.2-.4-.3 0-.2-.2-.3-.3-.4-.7-.2-1.4-.2-2-.1-.4 0-.7-.1-1.1 0-.2 0-.4.1-.5.2h-.1c-.2.1-.3.1-.5.2h-.1c-.2.2-.6-.1-.6.3-.1 0-.2.1-.2.1-.3-.2-.5 0-.6.2-.2.1-.4.2-.4.4-.3.2-.3.4 0 .6 0 .1-.1.2-.1.3-.2.1-.4.3-.1.5-.1.2 0 .4 0 .7v-.1.2c-.7-.2-1.6-.1-2.5.4-.7-.1-1.4-.3-2.1.2-1.1 0-2.2.1-3.3.1-.9.5-.9 1.3-.6 2.1.1.1.2.1.2.2h-.6c.2.4.4.8.6 1.3-.8.9-2.6.5-2.8 2.2-1.2 1.2-3.1 1.4-4.2 2.9-.9-.1-1.8-.2-2.4.6 0 .4 0 .8-.1 1.1-.4.2-.8.5-1.2.7-.9-.1-1.5.4-2 1-.2 0-.3.1-.5.1-.3.1-.5.3-.6.5-.1 0-.1-.1-.2-.1-.7-.2-1.4-.1-2.1.1-.2.2-.4.3-.5.5-.2 0-.5-.1-.7-.1-.3.8-1.4.8-1.8 1.5h-.6c-2.5.7-5.1 1.4-7.6 2.2-1.9.5-3.9.7-5.9.9-1.7.1-3.6-.1-5.1 1.2 0 .1 0 .3-.1.4-1.2.6-2.7 0-3.7 1h-2.4c-4.2-.4-8.2-.3-12.2.5-2.3-.1-.7 1.1-.6 1.8l-.7.7c-1-.3-1.9.2-2.9.4.8 1.1 1.9.6 2.8.5 1 .3 2.1.4 3-.2.1.7.6.8 1.2.6.6.1 1.2.1 1.8.2.4 0 .8-.1 1.2-.1.5-.2.9-.4 1.4-.6 2 .2 4.1.4 6.1.6-2.8.1-5.5.5-8.3.6-.3 0-.6.1-.9.2-.4.1-.8.3-1.2.6-.5 0-1 0-1.5-.1-.9-.2-1.7-.2-2.3.5-.1 0-.3-.1-.4-.1-.9-.1-1.8-.1-2.2 1 1.4 1.4 3.1.6 4.7.9.4.2.8.5 1.2.7.5 0 1.1 0 1.3.6.2.2.4.2.6.1 0 0 0-.1.1-.1.2 0 .4.1.6.2-.2 0-.4.1-.7.2h-.6c-.2.1-.4.3-.5.4-.2-.1-.3-.1-.5-.1-.3 0-.6.1-.9.3-.2 0-.4.1-.6.1-1-.8-1.9-.8-2.7.4-.7-.5-1.4-1-2.2-.2-2.4.4-4.9.1-7.3 1-3.2 0-6.4.1-9.6.1-.9 0-1.7 0-2.5.6 0 0-.1.1-.1.3v.3c-2.4-.5-4.3.7-6.3 1.8-.1-.1-.3-.2-.4-.3-.9-.9-1.9-.8-2.9-.1-.1.4.1.6.5.7.8 0 1.6-.1 2.5-.1.1.3.3.4.6.5l-.1.2c1 .6 1.7-.2 2.5-.5h2.3c.2-.1.3-.1.5-.2.3.2.5.3.8.5-.2.4-.4.8-.7 1.2-1.1 1-2.4.3-3.6.6-.1.1-.2.2-.2.4-.5-.5-1.1-.5-1.7-.1-.2.1-.4.1-.5.1-1.4-.1-2.7-.1-4.1-.2-.2 0-.4.1-.5.3-.1.1-.2.1-.4.1-.5 0-1.1 0-1.6-.1v-.1c-.2-.2-.5-.2-.7-.1-.6.1-1.2.1-1.8.2-1.3-1.1-2.8-.6-4.3-.3h-1.8c-1.1 0-2.4-.6-3.5.5 1.1.9 2 .3 2.8 0 .8 1.2 2 .5 3 .6 1.2.1 2.5.1 3.7.2.6 0 1.2.1 1.8.1 2.5.1 4.9.7 7.3-.2 1 .3 2.1.3 3-.4.8.4 1.3-.3 1.9-.5l2.2-.5c.5.1 1 .1 1.4.2l.2-1.8 4.3-1c1.4 1.2 2.9 1.1 4.5.5.1-.1.1-.2.2-.2.7.8 1.6.8 2.6.5.2-.1.3-.3.4-.5.7.3 1.5.2 2.2.2.2.1.4.1.6.1.2 0 .4.1.7.2-.4.1-.7.4-.8.9l2.5-.4h.1c.4.1.8.1 1.2.2 1.4.9 2.8 1.1 4.3.4l5.9.6v-.1c0 .1.1.2.2.3.5.2 1.1.2 1.6 0h1.9-1.8l-.6-.6 2.8.3.2-.2c.1 0 .2.1.2.1v-.1c.2.1.4.2.5.3h-.2c.1.1.3.2.4.2.5.1 1 0 1.3-.4 0 0 0 .1.1.1 1.8.3 2.3.3 2.5-.5h-.2c.1-.2.2-.4.3-.8 0-.1-.1-.2-.1-.3.1-.1.3-.2.4-.4-.7-.8-1.7-.7-2.6-.6-1.1-.2-1.8.3-2.5.9-1.6.3-1.4-1.4-2.3-1.9 0-.2 0-.4.1-.6 1.1-.1 2.2.4 3.3 0 .1.2.2.3.3.5 2.7-.7 5.6 1 8.1-.9h.4c.6.6 1.3-.1 2-.6.2.1.3 0 .4-.1 1.6.2 3.3.3 4.9-.4.7 0 1.4.4 1.9-.4 1 .1 2.1 0 3-.5 1.1-.2 2.7 1.2 3.1-1 .6-1.1 1.2.5 1.8 0 1.5-.4 3.3-.1 4.5-1.5 1.8-.3 3.7-.6 5.3-1.6.4-.4.9-.8 1.3-1.1 1.1.2 1.8-.3 2.5-1.1.8-.5 2 0 2.5-1 .4-.7.6-1.5.7-2.3v-.1c.1 0 .2 0 .3-.1 0 .1.1.1.2.1.4.1.7.1 1.1.2.1.1.1.1.2.1.5-.2.8.9 1.5 0 .2 0 .4 0 .6.1.1.8.8.5 1.3.3.4-.1.9 0 1.3-.5.8 0 1.2-.4 1-1.2.2-.2.5-.4.7-.6.6 0 1.1-.2 1.1-1 .5-.3.8-.9 1.1-1.4-.1 0-.1.1-.2.1.1-.1.1-.1.2-.1.4-.3.5-.7.6-1.1.4-.4 1-.7 1.3-1.3.1 0 .3 0 .4-.1.8.5.8-.5 1.2-.8.1-.1.1-.2.2-.2.1-.2.1-.4.2-.6-.1 0-.1-.1-.2-.1s-.2.1-.4.1l-.2-.2c-.2.2-.3.4-.2.6-.1 0-.1.1-.2.1v.1h-.1c0-.1.1-.1.1-.2 0-.2.2-.4.2-.6 0-.1.1-.1.1-.2.1 0 .2-.1.2-.1l.2-.2c-.1-.2-.2-.4-.4-.7-.1 0-.3.1-.4.1-.2.1-.3.1-.3.2 0-.1.1-.1.2-.2-.2 0-.3-.1-.5-.1v-.1c0-.1-.1-.2-.2-.3-.1-.1-.2-.1-.3-.1-.2 0-.4 0-.7-.1.2-.1.3-.3.4-.5 0 0 .1 0 .1-.1h.1l.3-.3c.1.2.3.3.7.1 0-.1.1-.1.1-.2.1-.2.1-.3 0-.5v-.1c0-.1-.1-.2-.1-.2l-.1-.1c.5-1.1.6-2.1-1-2.5 0-.6.1-1.2.1-1.8.5-.9.1-1.4-.3-1.9.2-.1.3-.2.5-.3.1-.1.2-.1.3-.2.1 0 .2 0 .2-.1.1.1.2.1.4 0 .1 0 .1 0 .1-.1V74h.1c.1-.1.3-.1.4-.2l.3-.3c.2-.1.4-.1.5-.3 0-.1-.1-.2-.2-.2-.3-.1-.5.1-.8.1-.1 0-.1-.1-.2-.1.1-.1.2-.1.3-.2.3-.1.7.2.8-.1v-.1c.4.2.7 0 .9-.2-.1-.3-.3 0-.5-.1-.1 0-.3 0-.4.1v-.1l.1-.1h.1c.1 0 .2 0 .3-.1.2-.2.5-.4.8-.4h-.1.1c.1-.1.2-.2.1-.3.2-.4.3-.8.2-1.2.8-.9.9-1.3.6-1.6zm-59.1 40.3c.1-.2.1-.5.2-.7l1.1.5-1.3.2zm56.3-23.8zm1.6-15.1l-.1.1v.2h-.3c.1.1.2-.1.4-.3 0 .1 0 0 0 0s0-.1 0 0c0-.1.1-.1.1-.1l-.1.1zm-3 3.9c-.1-.1-.1-.1-.2-.1h-.1l-.1-.1c.1 0 .2-.1.2-.1 0 .1 0 .1.1.1 0 .1.1.1.2.1l-.1.1zm-1.1 4.3h-.5c.1 0 .1-.1.2-.1l.1-.1c.1.1.2.1.2.2zm-20.3 17.6c-.8.1-1.6.2-2.3.5.4-.4.6-.9.1-1.7 1.2.2 2.3-.2 3.4-.6.2 0 .4.1.6.1-.1.4-.2.8-.1 1.2-.8-.5-1.4-.2-1.7.5.1 0 0 0 0 0zm-24.2 7.5l-.6-.3c.3.1.6.1.9.2-.1 0-.2 0-.3.1zM121 86.2zm14.9 5.3zm3.3-9.1c.1.1.2.1.3.2l-.6.3c0-.1-.1-.2-.2-.3.2-.2.4-.2.5-.2 0-.1 0-.1 0 0zm-5.1 5.2zm0-.3zm-.3-1.3zm1.2-.4c.1 0 .1 0 0 0 .1 0 0 0 0 0zm.2 3.2c0-.1-.1-.2-.2-.2.5-.2.3-.5.1-.7.2-.1.4-.2.5-.5.1-.1.2-.2.3-.4v-.1l.1.1v.1l-.2.2c-.1.1-.1.2-.2.3-.1.1-.3.2-.4.3.2.2.7.4 0 .8 0 0 .1.1.2.1 0 .1-.1.1-.1.2v.1c-.1 0-.1.1-.2.1.2-.2.2-.3.1-.4zm1.6-.7s.1 0 0 0h.1l.1.1c0 .1 0 .2.1.2 0 0-.1 0-.1.1 0 0 0-.1-.1-.1s-.2-.1-.3-.1l.2-.2zm-5.3 1.9s.1 0 0 0c.1 0 .1 0 0 0 .2.1.3.2.4.3v.2c-.1-.1-.2-.2-.3-.4 0 0 0-.1-.1-.1zm0-1.7l.1-.1.1.1c-.1-.1-.2-.1-.2 0zm4.6 1.3v-.1.1c0-.1 0 0 0 0zm3.3-3.3s0 .1 0 0zm.5-3.9c-.2 0-.3 0-.5-.1.1-.4.3-.7.4-1.1.3.1.5.1.8.2-.3.4-.5.7-.7 1zm-.5-1.4c-.2.3-.3.7-.2 1.1-.2-.1-.4-.2-.6-.2.3-.4.4-.7.5-.9 0 0 0-.1.1-.1v-.1h.2c-.1.1-.1.2 0 .2-.1 0 0 0 0 0zm-.2 5.5c.1-.1.1-.1 0 0 .1 0 .1.1.1.2h-.1c.1-.1.1-.2 0-.2zm.9-4.1zm-2.3-.4c-.4.1-.8.5-1.1.5-.3.3-.6.2-.9.3-.3-.5-.8-.1-1.1-.1-.2-.2-.4-.3-.6-.5.1-.2.2-.3.4-.5.5-.1 1-.3 1.1-1 .3-.3.5-.1.8-.2.1-.2.3-.4.2-.6.1-.1.1-.1.1-.2.7 1.1 1.1 1.8 1.1 2.3zm1.9-12.3zm1.2 1.7v.1h-.2c0-.1 0-.3-.1-.4h-.1l.1-.1h.1c.2.2.2.3.2.4zm-.1-.7zm-.6 0l.1.1v.1h-.1v-.2zm.8-1zm-1.2.5zm2 1.7s-.1-.1 0 0c-.1-.1-.1-.1 0 0-.1-.1-.1-.2-.1-.2s0 .1.1.1v.1c0-.1 0-.1 0 0 0-.1 0-.1 0 0 0-.1 0-.1 0 0zm.4-1zm1.1 0c.1 0 .1 0 0 0l.1.1h-.2c.1 0 .1-.1.1-.1zm-1.5-1.2zm-.6 3.2h.2-.2c-.1 0 0 0 0 0zm1-2.1zm1.1.5s0 .1 0 0c0 .1 0 .1 0 0zm.3-.9zm-4.1-.1c0 .1 0 .1 0 0 0 .1 0 .1 0 0 0 .1 0 .1 0 0zm3.3 1.5c0-.1 0-.1 0 0 .2 0 .3-.1.4-.2v.2h-.4zm1.2-1.6c.1 0 .1-.1 0 0 .1-.1.1-.1 0 0 .1-.1 0 0 0 0zm-4.4-.6c0 .1 0 .1 0 0 0 .1 0 .1 0 0 0 .1 0 .1 0 0 0 .1-.1.1 0 0-.1 0 0 0 0 0zm-43.1 31c0 .1.1.1 0 0 .1.1 0 .1 0 0 0 .1 0 .1 0 0zm30.8-10.8c.2 0 .3.1.5.1h.2l.1.1c-.1.1-.1.2-.3.2-.1 0-.3.1-.4.1.1-.2 0-.3-.1-.5zm5.3-.3c.2-.2.1-.3 0-.3V89c.1.1.2.2.3.2v.3h-.3zm3.3 2.1zm.2.1c.1 0 .1.1.1.1h-.3c.1 0 .2-.1.2-.1zm3.3-12.5c-.2-.1-.3-.3-.4-.4h.3c.1.1.1.3.1.4zm-.3.5c0 .1 0 .2.1.2v.1l-.1.1h-.2c-.1 0-.1-.1-.2-.1l-.2.2.2.2c.1.1.1.1.2.1h-.1c-.3-.3-1-.6-2.1-1 0-.2 0-.3-.1-.5 0-.2.1-.3.1-.5.3 0 .5-.1.7-.2.2 0 .3.2.3.4.1.2-.2.6.2.6.3 0 .3-.3.4-.5.2 0 .3-.1.5-.1 0 .5.1.8.3 1zm-.5.4c0 .1 0 0 0 0zm5.6-8.7c-.1-.1-.2-.1-.3-.1h.1v-.2l.1-.1c0 .1 0 .1.1.2l.1.1s-.1 0-.1.1zm.7-2.2zm-1-1c-.1 0-.1 0 0 0-.1 0 0 0 0 0 0-.1 0-.1 0 0 0-.1 0-.1 0 0 0-.1 0 0 0 0zm-.6.1h.4v.1c-.2 0-.2 0-.4-.1.1.1 0 .1 0 .1h-.1c.1 0 .1 0 .1-.1zm-6.7 5.2c0-.2 0-.4-.1-.6.2.2.4.3.6.5-.2 0-.3 0-.5.1zm-47 22.6c.3 0 .7-.1 1-.1.4.1.6.3.7.5h-.2c-.8 0-1.6 0-2.4.1.3-.1.6-.3.9-.5zm4.4 6.6c-.3 0-.6.1-.9.2.3-.2.6-.2.9-.2zm35.7-11.6zm3.1.7v-.1c0-.2 0-.3-.1-.4v-.1c.2.1.3.2.5.4v.3c-.1 0-.1 0-.2.1v-.1c-.1 0-.1 0-.2-.1zm6.1-13.1c.1 0 .1-.1.1-.1.1 0 0 .1-.1.1zm6.2-8.9s.1 0 .1-.1c0 .1.1.1.1.2h-.1c.1 0 0 0-.1-.1.1 0 0 0 0 0zm.2-1.8c0-.1 0-.1 0 0 0-.1 0-.1 0 0zm-6.4 3.2zm-62.7 36.9l-.6-.6c-.4-.4-.9-.4-1.4-.4.1 0 .1 0 .2-.1.3-.2.3-.5.1-.8.7.3 1.5.3 2.2.4 1 .8 2.4.8 3.6 1 .9-.1 1.7-.2 2.4-.7-.1.5-.2.9-.1 1.4l-.3-.1c-.4-.7-1.2-.5-1.8-.7-1 .2-2.2-.5-3.1.5-.4.1-.8.1-1.2.1zm7.2 1c.1 0 .1 0 0 0 .1 0 .1 0 0 0zm4.6-5.8h-.4c.2-.1.5-.3.6-.5l.6.3c-.2 0-.5 0-.8.2zm1.8.1h.6c0 .1.1.1.1.2-.1 0-.2 0-.2-.1-.2 0-.3-.1-.5-.1zm22.9-4.3c-.2-.1 0-.4-.1-.6.6 0 1.1-.2 1.1-.7h.1c.9.2 1.8-.1 2.5-.6-.3.3-.5.7-.6 1.1-.8-.4-1.6 0-2.4.3-.2.1-.3.5-.6.5zm11.8-7.9c-.2-.7.1-1 .4-1.2.6.6 1.3 1.1 2.2 1.4l.1.1c-.1 0-.3.1-.4 0-.8-.1-1.6-.2-2.3-.3zm15.2-2.1zm2.9-5.3zm3.1-12.9c-.1 0-.2-.1-.4 0h-.1c-.1 0-.1 0-.2.1s-.3.3-.3.4c0-.1-.1-.1-.2-.1v-.1c.1-.1.2-.1.4-.2v-.3s.1 0 .1.1h.2l.1-.1v-.2s0 .1.1.1h.1c.1.2.2.2.2.3z"></path>
        <path d="M86.1 108.8h-.4c-.1.1-.3.2-.4.4l1.2-.2c-.1-.1-.3-.2-.4-.2z"></path>
        <path d="M109.5 104.6c.9.6 1.7.4 2.8.2-.9-.4-1.8-.5-2.8-.2z"></path>
        <path d="M101.8 105.9c-.8.2-1.7.3-2.5.5-1.7-.1-3.5-.2-5.2-.3 1 2.3 3.1.5 4.6 1.2.6-.1 1.3-.2 1.9-.2.4-.1 1 .1 1.3-.5 1.1-.1 2.2-.1 3.4-.2-1.2-2-2.4-.3-3.5-.5z"></path>
        <path d="M113.4 103.9l3-.1c-.7-.7-1.4-.4-3 .1z"></path>
        <path d="M151.1 73c0-.1-.1-.1 0 0-.1-.1-.1-.1 0 0-.1-.1-.1-.1 0 0h-.1s0-.1.1-.1c-.1-.1-.1 0 0 .1 0-.1 0-.1 0 0 0-.1 0-.1 0 0v-.2h.1v-.3c0-.2.1-.3 0-.5v-.5c0-.1-.1-.1-.1-.1s0-.1-.1-.1v-.1h-.1v-.3h.1v-.1h-.1s-.1 0-.1.1v-.1h-.1v.4h-.8v-.5h-.1v.5h-.2.2v.1c0 .1-.2 0-.2.1l-.1.1c-.1-.1-.1 0-.2.1 0 .1-.1.1-.1.2-.1.1-.1.2 0 .2v.1c-.1.1-.1.1 0 .2v.5c0 .1-.1.2 0 .3v.3h.1c0 .1.1.2.1.2v.1h.1v.1s-.1-.1-.1 0v.1h.1v-.1s.1 0 .1.1-.1 0-.1.1l.3-.3s0-.1.1-.1h.2l.1-.1.1-.1c0-.1.1-.1.1-.2 0 0 0-.1-.1-.1s-.1 0-.2.1h-.1V73h-.1v-.1h.2c.1 0 .1 0 .1-.1.1 0 .1 0 .1-.2l.1-.1c0 .1-.1.1-.1.2v.2h.1c.6.2.6.2.7.1-.1.1-.1 0 0 0-.1 0 0 0 0 0zm-.6-.5v-.2c.1.1 0 .2 0 .2zm-1-.5s.1 0 0 0c.1-.1.2-.1.2-.1h-.2c.1.1.1.1 0 .1 0 .1 0 .1 0 0 0 .1 0 .1 0 0 0 .1 0 .1 0 0 0 .1 0 .1 0 0 0 .1 0 .1 0 0 0 .1 0 .1 0 0 0 .1 0 .1 0 0zm.6-.1zm-.6.2zm.2 0zm-.1.1zm-.1.2zm.1.5zm.1-.3s-.1 0 0 0c-.1 0-.1 0 0 0-.1 0-.1 0-.1-.1v-.1c.1.1.1.1.1.2zm0-.1c0-.1 0-.1 0 0v-.1c.1 0 .1 0 0 .1.1-.1.1-.1 0 0 .1-.1.1-.1 0 0zm.2-.6c-.1 0-.1 0 0 0-.1 0-.1 0 0 0-.1 0-.1 0 0 0-.1 0-.1 0 0 0zm-.2.2zm-.1 0c0 .1 0 .1 0 0 0 .1-.1 0 0 0-.1 0-.1 0 0 0zm0 1c.1-.1.1 0 0 0zm.1.1c.1 0 .1 0 0 0 .1 0 .1 0 0 0 .1 0 .1 0 0 0 .1.1.1.1 0 0zm.4-.5v.2h-.2v-.2h-.1.2v.1c-.1 0-.1 0 .1-.1h-.2c0-.1 0-.1-.1-.1h-.1.1s.1-.1 0-.1c0 0 .1 0 .1-.1v.1h-.1s-.1.1 0 .1.1-.1.2-.1.1.1.1.2c0-.1 0-.1 0 0zm.1-.6h-.1V72c0 .1.1.1.1.1zm-.1-.1s0 .1 0 0v-.1.1zm.4.2s-.1 0-.1-.1 0-.1-.1-.2c0-.1-.1 0-.1 0 0-.1 0-.1-.1-.1v-.1s0 .1.1.1v-.1h.2v.2c0 .1.1 0 .1.1v.2c0-.1 0 0 0 0zm0-.8c0 .1 0 .1 0 0l.1.1h.2s.1 0 .1-.1v.1h-.2c-.1.1-.1 0-.2 0 0 0-.1 0 0-.1 0 .1 0 0 0 0zm.5.8s0-.1 0 0c0-.1 0-.1 0 0 0-.1 0-.1 0 0 0-.1 0-.1 0 0 .1-.1.1-.1 0 0 .1 0 0 0 0 0zm0-.7c-.1 0-.1 0 0 0-.1-.1-.1-.1 0 0-.1-.1-.1-.1 0 0-.1-.1 0-.1 0 0 0-.1 0-.1 0 0zm-.2.4s0 .1.1.1h-.1v-.1c0 .1 0 .1 0 0 0 0-.1 0 0 0zm0 .4c.1 0 .1 0 0 0 .1-.1.1-.1 0 0 .1 0 .1 0 0 0 .1 0 .1 0 0 0l-.1.1.1-.1zm.2.2c.1 0 .1 0 0 0 .1 0 .1 0 0 0 .1 0 .1 0 0 0 .1 0 .1 0 0 0zm.1-.6s0-.1 0 0c0-.1 0-.1 0 0 0-.1 0-.1 0 0 0-.1 0 0 0 0zm-1.3 1.9zm.4-1.1c0-.1 0-.1 0 0 .1-.1.1-.1.2-.1v.1h-.2zm.5-.4c0-.1 0-.1 0 0 0-.1 0-.1 0 0 0-.1 0-.1 0 0 0-.1 0-.1 0 0 0-.1 0-.1 0 0zm.5-.5s0-.1 0 0c0-.1 0-.1 0 0zm-.2-.5zm-.9.1c-.1 0-.1 0 0 0-.1 0-.1 0 0 0-.1 0-.1 0 0 0zm-.8 1.4zm.6 1h-.1.1c-.1 0-.1 0 0 0-.1-.1-.1-.1 0 0 0 0-.1 0 0 0zm.2 0c-.1.1-.1.1 0 0-.1.1-.1.1 0 0-.1 0-.1 0 0 0v-.1.1c.1 0 0 0 0 0 0 .1 0 .1 0 0 0 .1 0 .1 0 0 0 .1 0 .1 0 0 0 .1 0 0 0 0zm.6-1.1c-.1 0 0 0 0 0v.1s-.1-.1-.1 0l-.1-.1h.1c.1-.1.1-.1.1 0 0-.1 0-.1 0 0 0-.1 0-.1 0 0 0-.1 0-.1 0 0 0-.1 0-.1 0 0z"></path>
        <path d="M99.3 108.7c-.5.1-.9.2-1.3.5l1.3-.5z"></path>
        <path d="M99.3 108.7c.7-.1 1.4-.1 1.9-.8l-1.9.8z"></path>
        <path d="M143.1 85.1h-.1.1z"></path>
        <path d="M19.3 109.7c.9 1.6 2 .4 2.8.6v-1.5c-.5 1.1-1.9.3-2.8.9z"></path>
        <path d="M150.6 72.6c-.1 0 0 0 0 0-.1 0-.1 0 0 0-.1.1-.1.1 0 0-.1.1-.1.1 0 0-.1.1-.1.1 0 0l.1.1-.1-.1c0 .1 0 .1 0 0z"></path>
        <path d="M94.4 109.4l3.6-1c-1.1 0-2.3-.2-3.3.3-.3.1-.4.3-.4.6-.4-.1-.8-.2-1.2-.2l1.4.6-.1-.3z"></path>
        <path d="M91.4 108.4c.5.4 1.1.6 1.7.7l-1.7-.7c-.2-.2-.4-.5-.6-.7 0 .3 0 .6-.1.8l.7-.1z"></path>
        <path d="M81.7 109c-.1 0-.1 0 0 0z"></path>
    </g>
</svg>