<svg preserveAspectRatio="xMidYMid meet" data-bbox="37.779 57.221 124.841 87.209" viewBox="37.779 57.221 124.841 87.209" height="200" width="200" xmlns="http://www.w3.org/2000/svg" data-type="color" role="presentation" aria-hidden="true"><defs><style>#comp-jjfohjez svg [data-color="1"] {fill: #212121;}</style></defs>
    <g>
        <path fill="#191919" d="M109.652 65.505c-1.556 1.494-2.843 3.228-4.376 4.735-.3.3-.742.486-.962.825-.447.694-1.34.994-1.578 1.849a20.419 20.419 0 0 0-3.189 3.216q-2.433 2.513-4.843 5.056c-.683.717-1.436 1.374-2.05 2.14a20.877 20.877 0 0 1-2.243 2.21c-1 .924-1.945 1.909-2.884 2.887-.644.669-1.281 1.347-1.915 2.027l-.928 1c-.919.989-2 1.819-2.846 2.889a10.272 10.272 0 0 1-1 1.083 36.177 36.177 0 0 0-2.685 2.625c-1.205 1.4-2.572 2.646-3.711 4.113a30.085 30.085 0 0 1-2.916 3.03c-.548.532-.983 1.16-1.56 1.673-.376.332-.928.579-1.011 1.184-.291.124-.57.254-.653.6.078.257-.121.335-.281.44a.524.524 0 0 0-.275.367.745.745 0 0 0-.394.373.436.436 0 0 0 .5-.348.39.39 0 0 0 .323-.371c.233-.03.2-.211.208-.369a.672.672 0 0 0 .429-.179 1.259 1.259 0 0 0 .258-.382c.346-.351.676-.717 1.04-1.047.779-.706 1.391-1.585 2.193-2.248a33.161 33.161 0 0 0 3.18-3.113q1.478-1.591 2.971-3.161c.749-.786 1.615-1.437 2.339-2.227.847-.928 1.725-1.821 2.6-2.722a173.766 173.766 0 0 0 3.367-3.557c.568-.619 1.091-1.288 1.67-1.888.866-.9 1.744-1.794 2.685-2.63 1.212-1.079 2.27-2.337 3.425-3.487.534-.531 1.029-1.12 1.537-1.676.651-.708 1.416-1.32 2.053-2.051a6.252 6.252 0 0 1 1.337-1.471c.882-.493 1.312-1.372 2-2.021.891-.845 1.7-1.814 2.58-2.687 1.551-1.544 3.014-3.166 4.517-4.753 1.661-1.757 3.377-3.466 5.093-5.173 1.551-1.542 3.1-3.09 4.6-4.676.115-.119.227-.238.339-.359h-.955c-1.194 1.221-2.4 2.43-3.535 3.711-1.406 1.592-2.924 3.09-4.454 4.563z" data-color="1"></path>
        <path fill="#191919" d="M148.963 66.3c-.378.369-.692.873-1.051 1.175a45.632 45.632 0 0 0-3.2 3.318 201.382 201.382 0 0 0-3.514 3.7c-.866.937-1.741 1.874-2.671 2.749a33.449 33.449 0 0 1-2.445 2.451 16.835 16.835 0 0 0-1.382 1.317 52.974 52.974 0 0 0-1.94 2c-.944 1.017-1.913 2.009-2.848 3.033-.909 1-2.009 1.808-2.838 2.894a5.56 5.56 0 0 1-.923 1c-.206.165-.406.335-.6.513-.74.66-1.418 1.389-2.08 2.11-1.269 1.384-2.632 2.685-3.789 4.183a27.8 27.8 0 0 1-2.946 3.07 21.426 21.426 0 0 1-1.583 1.682c-.383.3-.882.575-.976 1.152a.552.552 0 0 0-.426.35c-.424.069-.186.5-.369.695-.314-.019-.362.27-.508.442-.152.151-.456.171-.42.483a3.2 3.2 0 0 0-1.615 1.606c-.57.2-.8.763-1.232 1.118-.933.774-1.673 1.736-2.545 2.57-.365.165-.475.591-.8.788-.534.323-.815.887-1.262 1.292-.021.019.048.133.085.211-.358 0-.55.27-.779.479-.63.575-1.125 1.276-1.716 1.876-1.792 1.821-3.638 3.585-5.439 5.393-.272.272-.678.531-.568 1.04a27.576 27.576 0 0 0 3.37-3.255c1.23-1.238 2.46-2.484 3.631-3.783a6.778 6.778 0 0 0 1.514-1.736c.122-.009.186-.112.275-.174.743-.511 1.134-1.345 1.794-1.929q1.98-1.808 3.794-3.78l1.5-1.711c.215-.115.493-.161.522-.477.184-.089.408-.142.408-.392a.4.4 0 0 0 0-.057c.34-.114.459-.472.729-.664.06-.087.119-.174.179-.259.992-1.038 2-2.06 3.037-3.052.839-.806 1.636-1.658 2.525-2.421a12.292 12.292 0 0 0 1.6-1.764 20.956 20.956 0 0 1 1.637-1.707 19.47 19.47 0 0 1 1.712-1.748 8.771 8.771 0 0 0 1.377-1.289c.094-.117.192-.229.291-.342.577-.643 1.221-1.216 1.8-1.858a18.262 18.262 0 0 1 1.926-2c.566-.472.834-1.178 1.423-1.6a10.49 10.49 0 0 0 1.734-1.816 23.1 23.1 0 0 1 2.172-2.287 30.951 30.951 0 0 0 2.366-2.313c1.107-1.2 2.33-2.284 3.386-3.542.681-.811 1.592-1.446 2.264-2.286.611-.766 1.468-1.3 2.02-2.081a13.638 13.638 0 0 1 1.5-1.6c.841-.859 1.649-1.762 2.529-2.591 1.5-1.411 2.832-2.988 4.241-4.49 1.521-1.625 3.108-3.192 4.684-4.765h-.8c-.474.465-.96.918-1.443 1.374-.339.321-.488.774-.841 1.052a14.091 14.091 0 0 0-2.167 2.123 55.879 55.879 0 0 1-4.309 4.53z" data-color="1"></path>
        <path fill="#191919" d="M38.108 99.112c1.148-1.2 2.3-2.4 3.429-3.615.575-.619 1.07-1.315 1.67-1.908.887-.88 1.723-1.8 2.685-2.614.2-.165.388-.341.573-.525.593-.577 1.134-1.219 1.716-1.812a28.654 28.654 0 0 0 2.6-2.786.274.274 0 0 0 .335-.233 7.426 7.426 0 0 1 1.257-1.3 27.757 27.757 0 0 1 2.77-2.813c.236-.183.234-.522.481-.685a13.367 13.367 0 0 0 2.147-2.126c1.876-1.945 3.78-3.865 5.6-5.869 1.608-1.773 3.336-3.441 5.033-5.127 1.54-1.528 3.047-3.086 4.57-4.63 1.428-1.445 2.711-3.038 4.149-4.474l1.356-1.358h-.87c-1.274 1.333-2.559 2.652-3.83 3.983-1.627 1.7-3.313 3.345-4.875 5.109-1.352 1.528-2.878 2.9-4.277 4.389-1.015 1.084-2.085 2.11-3.015 3.276a28.9 28.9 0 0 1-3.159 3.139c-.6.557-1.109 1.2-1.664 1.787q-2.17 2.3-4.336 4.614c-1.888 2.02-3.814 4-5.746 5.981-.32.33-.666.635-1.012.939-.319.28-.637.562-.937.859-.917.908-1.826 1.826-2.685 2.791-.488.547-1.086.989-1.535 1.56A24.517 24.517 0 0 1 37.79 98.4v.919c.162.02.233-.119.318-.207z" data-color="1"></path>
        <path fill="#191919" d="M94.373 135.476c2.02-2.09 4.081-4.143 6.065-6.267a19.241 19.241 0 0 0 2.044-2.088 11.053 11.053 0 0 1 1.447-1.55c.931-.931 1.79-1.935 2.763-2.828 1.446-1.326 2.674-2.864 4.03-4.277 1.818-1.892 3.683-3.74 5.553-5.582 1.271-1.253 2.4-2.647 3.758-3.81a1.914 1.914 0 0 0 .156-.168c1.538-1.658 3.019-3.374 4.63-4.958a249.792 249.792 0 0 0 4.449-4.528c2-2.068 4.067-4.065 6.015-6.18 1.041-1.131 2.15-2.2 3.2-3.321 1.217-1.312 2.472-2.587 3.71-3.879 1.3-1.358 2.59-2.732 3.891-4.091.956-1 1.858-2.044 2.784-3.068.807-.893 1.7-1.713 2.551-2.563.1-.1.186-.191.088-.336a60.472 60.472 0 0 0 4.683-4.708 2.967 2.967 0 0 1 .226-.249c1.29-1.187 2.462-2.49 3.658-3.769-.153-.187-.29-.11-.428.021a12 12 0 0 0-.9.855 46.025 46.025 0 0 1-3.344 3.525 29.019 29.019 0 0 0-3.854 4.053c-.084.117-.528-.039-.27.33-.291-.11-.4.138-.537.292-.4.439-.7 1.027-1.184 1.306a7.19 7.19 0 0 0-1.893 1.786c-1.013 1.24-2.211 2.279-3.287 3.444-.567.613-1.111 1.249-1.692 1.851-.713.741-1.4 1.5-2.086 2.273a41.507 41.507 0 0 1-3.107 3.072c-1.031.94-1.822 2.089-2.848 3.045a31.553 31.553 0 0 0-2.542 2.671c-.671.792-1.55 1.409-2.274 2.172a14.517 14.517 0 0 0-1.372 1.487c-.108-.038-.142 0-.107.107-.15.323-.539.322-.755.557q-1.116 1.209-2.235 2.414c-1.281 1.377-2.611 2.706-3.91 4.064-1.718 1.8-3.478 3.552-5.155 5.388-1.379 1.51-2.885 2.9-4.291 4.394-1.034 1.095-2.126 2.132-3.058 3.326a31.03 31.03 0 0 1-3.094 3.07c-.636.616-1.18 1.309-1.809 1.931-1.459 1.445-2.764 3.047-4.221 4.494-2.281 2.267-4.362 4.727-6.762 6.879a38.253 38.253 0 0 0-3.365 3.385c-.716.824-1.523 1.553-2.235 2.379-.8.925-1.731 1.735-2.605 2.595h1.026c.026-.07.032-.167.082-.206 1.087-.844 1.793-2.05 2.841-2.944a17.978 17.978 0 0 0 1.738-2.009c1.178-1.363 2.582-2.493 3.832-3.787zm56.9-59.436z" data-color="1"></path>
        <path fill="#191919" d="M87.653 64.76c-1.565 1.652-3.146 3.288-4.72 4.93-.673.7-1.4 1.368-2.009 2.108a19.8 19.8 0 0 1-2.281 2.263c-1.029.9-1.934 1.918-2.885 2.885-.762.776-1.548 1.544-2.251 2.389-1.091 1.308-2.493 2.314-3.567 3.649-.839 1.043-1.872 1.9-2.807 2.857-1.193 1.219-2.348 2.474-3.525 3.707-.287.3-.589.591-.862.9a4.86 4.86 0 0 0-.405.516c-.248.362-.736.517-.82 1-.653.652-1.285 1.333-1.968 1.956-.52.476-.907 1.067-1.455 1.526A2.991 2.991 0 0 0 57.01 96.7c-.073-.016-.108.023-.121.089-.213.078-.523.108-.225.442.034-.034.071-.068.1-.1.31.112.307-.147.376-.319.655-.634 1.308-1.273 1.966-1.908a12.933 12.933 0 0 1 1.835-1.8 1.824 1.824 0 0 0 .767-.928c.037 0 .094.026.11.01.573-.575 1.15-1.144 1.711-1.728l.248-.256c.49-.516.944-1.063 1.425-1.586.531-.575 1.092-1.124 1.61-1.711a12.53 12.53 0 0 1 1.657-1.555c.861-.678 1.489-1.554 2.272-2.287.887-.827 1.684-1.775 2.552-2.632a16.088 16.088 0 0 1 1.865-2.018 10.659 10.659 0 0 0 1.594-1.785c.951-1.067 2.053-1.981 3.061-2.989.838-.839 1.652-1.7 2.488-2.546 1.168-1.175 2.259-2.428 3.436-3.592a33.516 33.516 0 0 1 2.749-2.765c.254-.2.27-.556.525-.728a14.76 14.76 0 0 0 2.189-2.18c1.476-1.53 2.969-3.042 4.422-4.6h-.7c-.291.329-.584.655-.886.976a4.239 4.239 0 0 1-1.369 1.196.408.408 0 0 0-.242.3 10.1 10.1 0 0 1-1.625 1.775c-1.095 1.052-2.107 2.19-3.147 3.285z" data-color="1"></path>
        <path fill="#191919" d="M52.965 136.874a23.265 23.265 0 0 0 2.085-2.057 9.7 9.7 0 0 1 1.289-1.429 3.179 3.179 0 0 0 1.038-.976 5.966 5.966 0 0 1 1.367-1.476c.858-.87 1.668-1.8 2.566-2.632 1.477-1.377 2.772-2.935 4.157-4.405 1.633-1.733 3.321-3.417 5.011-5.093 1.591-1.577 3.147-3.189 4.725-4.779 1.444-1.454 2.78-3.015 4.2-4.491 1.614-1.674 3.319-3.262 4.9-4.968 1.86-2.009 3.867-3.872 5.718-5.887 1.04-1.134 2.162-2.19 3.2-3.322 1.929-2.1 3.965-4.1 5.916-6.177 1.25-1.33 2.522-2.639 3.758-3.979 1.066-1.156 2.142-2.3 3.241-3.425.108-.109.223-.214.138-.391a41.3 41.3 0 0 0 3.666-3.6c1.346-1.408 2.727-2.781 4.056-4.2.3-.319.726-.558.768-1.066a1.642 1.642 0 0 0-.689.459c-.607.569-1.129 1.215-1.686 1.83-1.606 1.776-3.463 3.3-5.08 5.072a6.327 6.327 0 0 0-1.177 1.5.883.883 0 0 0-.641.364 6.135 6.135 0 0 1-1.234 1.33 7.5 7.5 0 0 0-1.883 1.827c-.844 1.129-1.94 1.989-2.858 3.031-.652.74-1.32 1.495-2.052 2.179-.76.709-1.417 1.523-2.116 2.294a45.799 45.799 0 0 1-3.068 3.038c-1.04.948-1.834 2.11-2.88 3.065-1.211 1.105-2.211 2.451-3.465 3.518-1.274 1.084-2.22 2.477-3.559 3.507a20.753 20.753 0 0 0-2.268 2.39c-1.366 1.456-2.69 2.949-4.175 4.293-.635.575-1.115 1.319-1.737 1.911-1.214 1.156-2.343 2.391-3.505 3.6-1.368 1.419-2.734 2.841-4.119 4.245a37.31 37.31 0 0 0-2.9 3.164c-.909 1.161-2.113 2.037-3.118 3.109a14.229 14.229 0 0 1-1 1.147 40.207 40.207 0 0 0-3.214 3.331q-2.345 2.442-4.69 4.887c-.71.742-1.469 1.444-2.124 2.227-.709.848-1.576 1.51-2.347 2.28s-1.555 1.488-2.253 2.311h.691a36.829 36.829 0 0 1 2.832-2.8c1.225-1.255 2.417-2.542 3.664-3.773.312-.316.531-.698.852-.983z" data-color="1"></path>
        <path fill="#191919" d="M42.61 124c.946-.935 1.837-1.927 2.769-2.873.5-.5 1-1.07 1.492-1.578.838-.864 1.647-1.764 2.529-2.594 1.5-1.409 2.824-2.982 4.233-4.476 1.643-1.739 3.347-3.423 5.036-5.118 1.731-1.736 3.415-3.521 5.179-5.225.481-.468.8-1.063 1.3-1.512a24.878 24.878 0 0 0 2.215-2.3c.9-1.04 1.975-1.9 2.9-2.925 1.127-1.246 2.391-2.369 3.5-3.629.406-.456.827-.893 1.258-1.322.974-.973 1.984-1.91 2.889-2.96a40.582 40.582 0 0 1 2.907-2.978c.811-.765 1.519-1.64 2.291-2.446a361.976 361.976 0 0 1 4.566-4.706c1.134-1.145 2.224-2.336 3.314-3.516 1.128-1.219 2.335-2.364 3.4-3.643a10.819 10.819 0 0 1 1.145-1.2c.965-1.134 2.161-2.036 3.093-3.2a8.961 8.961 0 0 1 .772-.836c1.267-1.23 2.509-2.485 3.656-3.83.786-.55 1.214-1.45 1.938-2.03.7-.566 1.274-1.255 1.913-1.878h-.449a11.1 11.1 0 0 0-.82.884c-.474.582-1.113 1.028-1.622 1.587-.408.445-.974.772-1.143 1.409A6.365 6.365 0 0 0 100.846 63a31.854 31.854 0 0 1-2.229 2.353 37.414 37.414 0 0 0-4.335 4.538.921.921 0 0 0-.659.472c-.678 1.045-1.794 1.654-2.564 2.632-.357.454-.9.857-1.248 1.359-.52.746-1.356 1.14-1.906 1.839-.142.1-.037.236-.064.353-.252-.046-.39.126-.525.284-.912 1.07-1.961 2.014-2.877 3.072a52.1 52.1 0 0 1-4 4.126c-1.008.935-1.8 2.057-2.82 2.992-1.173 1.072-2.135 2.385-3.345 3.429-.048.044-.1.085-.146.126-1.288 1.068-2.2 2.493-3.553 3.51a9.932 9.932 0 0 0-1.618 1.672 19.169 19.169 0 0 1-2.238 2.474 37.3 37.3 0 0 0-2.85 2.843c-1.571 1.675-3.246 3.249-4.76 4.978-.956 1.091-2.025 2.083-3.082 3.079-.316.3-.437.729-.753.972a14.016 14.016 0 0 0-2.209 2.158 54.762 54.762 0 0 1-4.373 4.586c-.366.35-.641.834-.985 1.132-1.253 1.074-2.2 2.426-3.416 3.528-.561.506-1 1.15-1.553 1.683-1.688 1.632-3.189 3.45-4.95 5.008v.692c.453-.424.925-.832 1.356-1.276 1.163-1.199 2.277-2.443 3.466-3.614z" data-color="1"></path>
        <path fill="#191919" d="M77.679 134.941q2.311-2.406 4.684-4.753a225.85 225.85 0 0 0 4.634-4.706c1.415-1.486 2.778-3.032 4.214-4.5 1.814-1.848 3.646-3.682 5.438-5.55 1.722-1.8 3.53-3.5 5.217-5.334 1.106-1.2 2.246-2.367 3.374-3.547s2.242-2.339 3.365-3.508l3.828-3.987c.41-.428.812-.865 1.213-1.3.25-.273.312-.715.706-.851a1.385 1.385 0 0 0 .512-.426 29.848 29.848 0 0 1 2.315-2.436 2.168 2.168 0 0 0 .884-1.164c1.407-1.289 2.732-2.659 4.053-4.035.868-.9 1.761-1.784 2.606-2.709a11.188 11.188 0 0 0 1.886-2.114 5.313 5.313 0 0 0 1.626-1.69l1.02-.954c.52-.259.651-.9 1.115-1.184a15.659 15.659 0 0 0 2.1-2.049l1.518-1.711a.923.923 0 0 0 .563-.53c-.334.067-.535.334-.786.527a4.92 4.92 0 0 0-1.433 1.594c-.074.013-.185 0-.219.044-.891 1.167-2.148 1.988-3.021 3.172a2.769 2.769 0 0 0-.967.945 8.288 8.288 0 0 0-1.744 1.837 14.288 14.288 0 0 0-2.171 2.233c-1.5 1.661-3.255 3.071-4.756 4.738a12.352 12.352 0 0 0-1.642 1.881c-.246-.1-.316.119-.437.241-.445.446-.766 1.1-1.261 1.382a7.7 7.7 0 0 0-1.861 1.767c-1.045 1.177-2.141 2.292-3.251 3.4-.587.588-1.119 1.234-1.7 1.836-.851.883-1.654 1.812-2.505 2.695-.959 1-1.918 2-2.935 2.931-.941.865-1.673 1.909-2.609 2.788a32.352 32.352 0 0 0-2.544 2.67c-.683.807-1.566 1.445-2.318 2.2a15.37 15.37 0 0 0-1.38 1.565c-.229.3-.633.329-.859.63a25.738 25.738 0 0 1-1.865 1.988c-1.531 1.641-3.127 3.226-4.676 4.847-1.6 1.672-3.244 3.3-4.8 5.027-1.431 1.59-2.977 3.082-4.5 4.592s-2.81 3.207-4.31 4.722c-.305.309-.78.457-.98.8a17.882 17.882 0 0 1-1.566 1.77c-.509.664-1.265 1.225-1.819 1.912-.521.645-1.284 1.049-1.7 1.782h.8a8.83 8.83 0 0 1 1.791-2.029c.9-.887 1.722-1.846 2.652-2.7 1.608-1.48 2.991-3.176 4.501-4.749z" data-color="1"></path>
        <path fill="#191919" d="M61.764 67.826c-1.15 1.363-2.619 2.426-3.753 3.816-.694.85-1.546 1.549-2.309 2.335-1.068 1.1-2.119 2.21-3.164 3.333-.937 1.01-1.855 2.041-2.781 3.063-.163.107-.2.3-.35.444a20.168 20.168 0 0 0-2.188 2.273c-.408.261-.575.758-1.01 1-.6.337-.827 1.049-1.393 1.429a.114.114 0 0 0-.124.113c-.011 0-.021.011-.032.036s0 .044.039.064c.036.081.073.158.11.239.126-.115.119-.282.16-.429.046.046.051.19.115.19.027 0 .066-.029.126-.107.33-.436.74-.8 1.1-1.208s.932-.6 1.081-1.179a.544.544 0 0 0 .408-.275 5.447 5.447 0 0 1 1.331-1.279 2.185 2.185 0 0 0 .745-.884 5.066 5.066 0 0 0 1.143-.978c.364-.573.955-.9 1.315-1.446a21.43 21.43 0 0 1 2.043-2.238 7.678 7.678 0 0 1 1.233-1.29 15.715 15.715 0 0 0 1.564-1.367c.591-.534 1.093-1.171 1.67-1.737.759-.744 1.487-1.53 2.213-2.309.44-.472 1.031-.843 1.265-1.505a.738.738 0 0 1 .341-.371c.8-.392 1.2-1.189 1.78-1.789.83-.862 1.6-1.783 2.507-2.568 1.39-1.2 2.572-2.607 3.873-3.9.678-.674 1.334-1.375 1.991-2.073h-.673q-1.97 2.031-3.921 4.071c-.561.584-1.2 1.072-1.787 1.626a32.8 32.8 0 0 0-2.529 2.6c-.678.801-1.461 1.498-2.139 2.3z" data-color="1"></path>
        <path fill="#191919" d="M39.384 103.735c.8-1.01 1.711-1.908 2.6-2.834 1.773-1.855 3.64-3.624 5.406-5.486 1.024-1.077 2.037-2.186 3.1-3.2.584-.559 1.12-1.164 1.656-1.764a21.966 21.966 0 0 1 1.739-1.794 13.4 13.4 0 0 0 1.489-1.578c.9-1.1 2.032-1.963 2.962-3.035 1.095-1.265 2.4-2.344 3.512-3.6 1.329-1.5 2.85-2.813 4.179-4.323 1.134-1.287 2.371-2.511 3.606-3.72.728-.715 1.331-1.583 2.075-2.254 1.411-1.276 2.612-2.74 3.977-4.053 1.214-1.168 2.328-2.444 3.475-3.679 1.123-1.2 2.291-2.369 3.377-3.608a7.977 7.977 0 0 1 1.185-1.256c.1-.107.192-.215.293-.32h-.552a6.8 6.8 0 0 0-.919 1.145 1.18 1.18 0 0 0-.683.472 19.484 19.484 0 0 1-1.961 1.979 5.487 5.487 0 0 0-1.292 1.347 25.881 25.881 0 0 1-2.7 2.912 30.681 30.681 0 0 1-2.1 2.181c-.869.817-1.618 1.757-2.447 2.618-.969 1-1.927 2.028-2.967 2.953-.927.827-1.544 1.922-2.561 2.685-.8.6-1.306 1.56-2.13 2.192-.321.25-.433.722-.788.967a11.566 11.566 0 0 0-1.533 1.365c-.71.708-1.352 1.5-2.069 2.184-.792.753-1.6 1.486-2.334 2.3q-.918 1.02-1.876 2c-1.146 1.166-2.348 2.286-3.437 3.5-.128.142-.256.282-.389.421-1.331 1.43-2.788 2.733-4.057 4.227a40.278 40.278 0 0 1-2.908 2.921c-.349.335-.536.8-.885 1.095a22.279 22.279 0 0 0-2.359 2.33 30 30 0 0 1-3.278 3.475v.807a16.908 16.908 0 0 0 1.594-1.572z" data-color="1"></path>
        <path fill="#191919" d="M40.58 72.854c.866-.827 1.606-1.764 2.485-2.584.585-.543 1.107-1.228 1.68-1.792.914-.9 1.748-1.883 2.689-2.758 1.459-1.354 2.722-2.9 4.1-4.332 1.354-1.409 2.751-2.774 4.137-4.155h-.907a55.4 55.4 0 0 0-1.1 1.072c-.2.2-.257.55-.472.7a10.645 10.645 0 0 0-2.211 2.14 59.381 59.381 0 0 1-4.311 4.547c-.388.383-.7.871-1.086 1.2-1.18 1.008-2.053 2.3-3.217 3.315-.623.545-1.072 1.294-1.7 1.865-1 .918-1.81 2.027-2.886 2.87v.8c.936-.968 1.83-1.967 2.799-2.888z" data-color="1"></path>
        <path fill="#191919" d="M98.635 137.128c1.243-1.207 2.365-2.537 3.55-3.8 1.433-1.533 2.975-2.955 4.385-4.509.91-1 1.958-1.874 2.828-2.919 1.224-1.469 2.746-2.643 3.988-4.11.927-1.094 1.99-2.1 3.023-3.113.9-.881 1.7-1.859 2.59-2.742 1.462-1.447 2.838-2.975 4.275-4.444 1.214-1.241 2.333-2.57 3.583-3.779.767-.742 1.388-1.623 2.234-2.3.307-.246.532-.635.834-.924a.206.206 0 0 0-.005-.33 2.094 2.094 0 0 0-1.006.669c-.409.4-.638.952-1.144 1.26a10.887 10.887 0 0 0-1.863 1.8 12.97 12.97 0 0 1-1.626 1.787 21.592 21.592 0 0 0-1.683 1.7c-.33.281-.546.694-.87.987a22.355 22.355 0 0 0-2.3 2.413c-.944 1.152-2.069 2.129-3.078 3.216-.673.723-1.423 1.395-2.069 2.159a3.8 3.8 0 0 1-.741.82c-1.092.692-1.667 1.892-2.683 2.659-.217.164-.328.533-.569.7a32.035 32.035 0 0 0-2.881 2.7c-.281.258-.31.685-.678.893a10.253 10.253 0 0 0-2.353 2.2c-.607.66-1.2 1.333-1.817 1.983-1.389 1.461-2.863 2.838-4.225 4.328-1.022 1.119-2.169 2.124-3.19 3.245-1.038 1.14-2.092 2.26-3.212 3.319a3.306 3.306 0 0 0-1.109 1.417h.69a27.466 27.466 0 0 1 2.65-2.774c1.511-1.48 2.951-3.039 4.472-4.511z" data-color="1"></path>
        <path fill="#191919" d="M38.248 69.269c.229-.438.8-.5 1.008-.933.282-.584.889-.865 1.241-1.386a18.468 18.468 0 0 1 2.053-2.233 12.49 12.49 0 0 1 1.416-1.42 13.161 13.161 0 0 0 1.583-1.5c.687-.738 1.4-1.446 2.1-2.174a25.142 25.142 0 0 1 1.815-1.9 3.533 3.533 0 0 0 .465-.492h-.763c-.976 1-2.078 1.89-2.978 2.978-.724.875-1.595 1.615-2.4 2.421-1.05 1.049-2.051 2.147-3.07 3.228-.543.575-1.093 1.143-1.613 1.739a5.914 5.914 0 0 1-1.315 1.353v.807a2.531 2.531 0 0 0 .458-.488z" data-color="1"></path>
        <path fill="#191919" d="M88.548 81.841l-4.618 4.726a3.4 3.4 0 0 0-1.03 1.026 6.718 6.718 0 0 0-1.627 1.719 14.784 14.784 0 0 0-2.33 2.381c-1.589 1.759-3.448 3.249-5.03 5.021a7.68 7.68 0 0 0-1.14 1.392 1.189 1.189 0 0 0-.637.428 7.445 7.445 0 0 1-1.279 1.366 7.858 7.858 0 0 0-1.932 1.889 39.339 39.339 0 0 1-2.765 2.97c-.664.76-1.393 1.52-2.135 2.238-.977.944-1.834 2.012-2.809 2.959-.81.788-1.519 1.675-2.392 2.4-1.059.88-1.813 2.045-2.828 2.985-1.26 1.165-2.313 2.564-3.63 3.674-1.217 1.026-2.024 2.458-3.391 3.321-.046.028-.071.087-.107.131-.572.682-1.221 1.292-1.826 1.943q-2.391 2.568-4.884 5.044a137.502 137.502 0 0 0-3.059 3.186 5.489 5.489 0 0 1-1.308 1.2v1.035c1.389-1.132 2.489-2.554 3.785-3.782 1.171-1.109 2.214-2.35 3.31-3.532 1.283-1.386 2.662-2.673 3.955-4.047q2.61-2.772 5.31-5.462a87.19 87.19 0 0 0 2.747-2.859c1.41-1.541 2.881-3.025 4.318-4.539a353.617 353.617 0 0 1 4.6-4.736q2.075-2.108 4.051-4.313c.927-1.029 1.912-2 2.871-2.995.112-.116.252-.239.145-.435a4.544 4.544 0 0 0 1.18-1.029c.828-.9 1.73-1.717 2.569-2.6 1.4-1.475 2.832-2.924 4.231-4.4.22-.234.555-.424.549-.822a3.97 3.97 0 0 0 1.6-1.595l1.151-1.053c.55-.535 1.081-1.088 1.641-1.615 1.016-.959 1.9-2.056 2.841-3.095.235-.236.584-.353.721-.69l-.034.007c-.369.032-.504.396-.784.558z" data-color="1"></path>
        <path fill="#191919" d="M61.544 134.016c.839-.913 1.794-1.718 2.593-2.672 1.24-1.479 2.753-2.688 4.019-4.154.95-1.1 2.015-2.128 3.066-3.152.912-.888 1.745-1.855 2.624-2.777 1.363-1.429 2.72-2.864 4.107-4.269 1.254-1.27 2.4-2.642 3.689-3.876.768-.733 1.383-1.608 2.2-2.309.348-.3.859-.645.892-1.242l-.055.011a.168.168 0 0 1 .055-.011 32.425 32.425 0 0 0 3.593-3.487c1-1 1.991-2.016 2.945-3.062a14.84 14.84 0 0 0 1.985-2.191 6.129 6.129 0 0 0 1.716-1.844 52.137 52.137 0 0 0 4.129-4.041l1.055-1.218a2.354 2.354 0 0 0 .542-.558.128.128 0 0 1-.067-.042c-.238.018-.35.207-.488.359a3.227 3.227 0 0 0-1.171 1.346c-.289-.043-.358.251-.549.358a.761.761 0 0 0-.362.435l-3.219 3.224a10.8 10.8 0 0 0-1.721 1.853 18.009 18.009 0 0 0-2.562 2.639c-1.381 1.516-3.011 2.779-4.352 4.334-.233.27-.528.486-.779.742a1.992 1.992 0 0 0-.751 1.164c-.465-.224-.566.244-.769.444-.429.425-.719 1.056-1.215 1.332a8.522 8.522 0 0 0-1.885 1.777 25.13 25.13 0 0 1-2.437 2.524c-.143.087-.285.174-.142.37a3.128 3.128 0 0 0-.608.444c-.932 1.112-2.018 2.081-2.969 3.171a57.351 57.351 0 0 1-3.907 4.028c-1.138 1.073-2.089 2.318-3.23 3.4-1.021.967-1.894 2.11-2.965 3.031-1.341 1.154-2.363 2.614-3.759 3.721a21.543 21.543 0 0 0-2.194 2.309c-1.3 1.391-2.585 2.791-3.97 4.1-1.181 1.117-2.169 2.421-3.377 3.515-.217.2-.516.346-.578.683h.92c.575-.715 1.259-1.323 1.9-1.976 1.131-1.157 2.213-2.362 3.311-3.549 1.541-1.669 3.204-3.214 4.74-4.884z" data-color="1"></path>
        <path fill="#191919" d="M39.494 79.958a164.709 164.709 0 0 1 4.325-4.625c2.227-2.289 4.5-4.536 6.708-6.845 1.448-1.515 2.983-2.942 4.391-4.495 1.292-1.427 2.649-2.8 3.98-4.185l2.462-2.575h-.7c-.33.375-.662.749-1.013 1.1-.951.953-1.842 1.965-2.866 2.845-1.07.918-1.846 2.1-2.889 3.067-1.191 1.1-2.171 2.435-3.42 3.473-1.283 1.065-2.133 2.564-3.574 3.453-.027.018-.036.064-.057.1a23.478 23.478 0 0 1-1.851 2c-.832.939-1.759 1.8-2.593 2.738a43.391 43.391 0 0 0-3.141 3.237 9.9 9.9 0 0 1-1.468 1.441v1.035a33.316 33.316 0 0 0 1.706-1.764z" data-color="1"></path>
        <path fill="#191919" d="M123.571 63.157a.7.7 0 0 0-.3.387.082.082 0 0 0 .132.009.651.651 0 0 0 .653-.481c.878-1 1.867-1.9 2.811-2.827 1.022-1.008 2.094-1.979 3.088-3.012h-.728c-.681.717-1.292 1.491-2.037 2.155a25.765 25.765 0 0 0-2.2 2.328c-.337.385-.891.573-1.029 1.134a1.818 1.818 0 0 1-.39.307z" data-color="1"></path>
        <path fill="#191919" d="M125.568 132.9a369.431 369.431 0 0 1 6.345-6.6c1.533-1.564 2.968-3.227 4.542-4.752.658-.638 1.159-1.4 1.846-2.026 1.213-1.109 2.268-2.389 3.389-3.6a9.634 9.634 0 0 1 1.186-1.246c1.149-1.127 2.241-2.314 3.353-3.479.143-.15.256-.331.41-.467 1.245-1.1 2.322-2.362 3.481-3.545a.573.573 0 0 0 .193-.378c.12 0 .189-.092.276-.16.864-.681 1.392-1.68 2.254-2.362 1.118-1.109 2.3-2.156 3.333-3.345l1.5-1.749a3.531 3.531 0 0 0-1.619 1.627.849.849 0 0 0-.425.255c-.945 1.06-2.041 1.974-2.955 3.065a37.557 37.557 0 0 0-2.38 2.342c-.137.145-.045.217 0 .321a5.358 5.358 0 0 0-1.938 1.737c-.1.039-.2.089-.206.22a4.052 4.052 0 0 1-.282.354c-.983.979-1.933 2-2.966 2.918-.75.671-1.374 1.455-2.11 2.131a3.973 3.973 0 0 0-1.117 1.393c-.34.023-.527.279-.725.5-.382.423-.667.992-1.131 1.267a7.53 7.53 0 0 0-1.9 1.778c-1 1.208-2.191 2.212-3.224 3.372-1 1.128-2.117 2.157-3.082 3.312-.911 1.088-1.97 2.022-2.925 3.06-.2.214-.292.526-.525.667a13.57 13.57 0 0 0-2.709 2.837.379.379 0 0 0-.454.235 9.635 9.635 0 0 0-.676.771 12.486 12.486 0 0 1-2.178 2.289c-1.534 1.284-2.635 3-4.3 4.12-.028.019-.029.073-.054.1-.66.706-1.327 1.405-1.98 2.117-.743.809-1.473 1.629-2.21 2.444h.806a1.5 1.5 0 0 1 .417-.593c1.8-1.6 3.412-3.4 5.087-5.122 1.885-1.938 3.808-3.832 5.653-5.808z" data-color="1"></path>
        <path fill="#191919" d="M104.074 65.333c-.562.536-.979 1.2-1.544 1.721-1.022.943-1.971 1.961-2.953 2.943-1.551 1.551-2.967 3.228-4.49 4.8-.1.1-.339.236-.149.465a12.758 12.758 0 0 0-2.5 2.429 22.7 22.7 0 0 0-2.366 2.5c.13-.03.263.21.389.009.584-.944 1.592-1.489 2.232-2.38A10.213 10.213 0 0 1 94 76.552a9.668 9.668 0 0 0 1.294-1.281c.447-.445.885-.91 1.322-1.354s.857-.893 1.249-1.37c.776-.937 1.748-1.681 2.508-2.644.5-.632 1.267-1.04 1.831-1.628.934-.979 1.851-1.971 2.815-2.921 1.153-1.13 2.172-2.387 3.317-3.53.752-.747 1.412-1.583 2.138-2.358.607-.65 1.251-1.269 1.878-1.9a1.043 1.043 0 0 0 .491-.332h-.72a.7.7 0 0 0-.034.2c-.183-.174-.3-.041-.426.085-.846.859-1.76 1.663-2.518 2.593-.673.825-1.48 1.51-2.167 2.318a40.14 40.14 0 0 1-2.904 2.903z" data-color="1"></path>
        <path fill="#191919" d="M57.155 90.982a1.717 1.717 0 0 0 .7-.592c.924-1 1.835-2.024 2.812-2.977.3-.3.459-.67.763-.961a51.591 51.591 0 0 0 4.192-4.29c.1-.1.2-.212.31-.312 1.294-1.2 2.5-2.493 3.673-3.813-.376-.212-.555.135-.741.311-.986.933-1.786 2.043-2.8 2.957a1.9 1.9 0 0 0-.541.653c-.733.652-1.517 1.256-2.187 1.967-1.19 1.26-2.348 2.55-3.592 3.76a6.357 6.357 0 0 1-.985 1 6.79 6.79 0 0 0-1.738 1.755 36 36 0 0 1-2.689 2.816c-.661.718-1.314 1.453-2.018 2.138-.871.847-1.633 1.8-2.476 2.678-.918.956-1.845 1.908-2.824 2.8-1.012.922-1.8 2.043-2.8 2.988a39.69 39.69 0 0 0-2.611 2.743 29.742 29.742 0 0 1-2.489 2.358c-.51.463-.809 1.086-1.335 1.517v.69a11.214 11.214 0 0 0 1.53-1.44c1.608-1.891 3.486-3.521 5.14-5.375 1.169-1.31 2.45-2.54 3.69-3.8 1.38-1.4 2.706-2.849 4.064-4.27a392.823 392.823 0 0 1 4.393-4.549c.242-.226.188-.634.559-.752z" data-color="1"></path>
        <path fill="#191919" d="M66.808 57.317l.066-.084h-.391a.573.573 0 0 0-.014.2c.131.001.231.029.339-.116z" data-color="1"></path>
        <path fill="#191919" d="M84.862 133.558c.659-.688 1.345-1.351 1.99-2.052 1.186-1.289 2.376-2.58 3.611-3.816.985-.987 1.815-2.112 2.867-3.035.828-.726 1.441-1.665 2.305-2.38a2.48 2.48 0 0 0 .949-1.222c-.186-.059-.3-.2-.544.051a15.062 15.062 0 0 1-2.142 2.172 4.94 4.94 0 0 0-1.3 1.331 32.452 32.452 0 0 1-2.776 3 26.8 26.8 0 0 1-2.117 2.224c-.769.7-1.434 1.514-2.133 2.289-.971 1.08-2.036 2.078-3.1 3.074-.741.7-1.249 1.627-2.034 2.24-1.05.82-1.8 1.908-2.755 2.808-.682.644-1.393 1.285-2.028 1.985a10.379 10.379 0 0 0-1.978 2.2h.806c.609-.679 1.207-1.368 1.831-2.033 1.315-1.4 2.744-2.692 4.047-4.109 1.479-1.604 2.998-3.158 4.501-4.727z" data-color="1"></path>
        <path fill="#191919" d="M144.608 64.8a293.022 293.022 0 0 0-4.3 4.607c-.085.091-.349.226-.152.453a7.878 7.878 0 0 0-1.374 1.169c-.417.432-.8.895-1.189 1.356-.367.11-.435.508-.708.731-.394.323-.9.575-1.086 1.111a.531.531 0 0 0-.023.055c-.119.231-.481.238-.52.538-.236.094-.11.3-.142.456l-.227.117c-.185.041-.256.2-.343.341.181.126.229-.083.339-.137.195-.021.167-.2.236-.317.254-.073.256-.261.2-.472.38.2.433-.164.595-.341.317-.183.472-.527.736-.774a5.732 5.732 0 0 0 1.269-1.276.739.739 0 0 0 .4-.337 2.012 2.012 0 0 1 .312-.426 13.008 13.008 0 0 0 1.885-1.787A13.306 13.306 0 0 0 142.352 68c.815-.971 1.743-1.837 2.575-2.8a8.714 8.714 0 0 1 1.15-1.171 10.466 10.466 0 0 0 1.844-1.7 19.157 19.157 0 0 1 1.817-1.894c1.063-1.022 2.009-2.149 3.033-3.207h-.733c-1.082 1.248-2.4 2.272-3.5 3.528-1.229 1.42-2.631 2.687-3.93 4.044z" data-color="1"></path>
        <path fill="#191919" d="M38.552 57.233h-.762v.788a4.471 4.471 0 0 0 .762-.788z" data-color="1"></path>
        <path fill="#191919" d="M82.837 63.975a19.155 19.155 0 0 0-1.587 1.573c-.7.658-1.283 1.419-2.021 2.044a3.316 3.316 0 0 0-.946 1.253c.1-.06.211.128.33-.048a5.789 5.789 0 0 1 1.187-1.288c.967-.776 1.62-1.867 2.621-2.609a1.922 1.922 0 0 0 .806-.923 3.759 3.759 0 0 0 1.23-1.031c.353-.531.885-.864 1.251-1.37a16.871 16.871 0 0 1 1.929-2.082 22.607 22.607 0 0 1 1.643-1.663c.242-.2.494-.392.733-.6h-1.027a11.585 11.585 0 0 0-1.049 1.079c-.566.685-1.191 1.317-1.8 1.949-1.038 1.079-1.975 2.245-3.015 3.32a1.616 1.616 0 0 1-.285.396z" data-color="1"></path>
        <path fill="#191919" d="M40.431 138.106c1.413-1.36 2.711-2.827 4.071-4.236 1.257-1.3 2.495-2.62 3.734-3.937a25.34 25.34 0 0 1 1.833-1.953 11.363 11.363 0 0 0 1.266-1.4 4.786 4.786 0 0 1 .36-.441c1.087-1.049 2.217-2.062 3.221-3.187.914-1.024 1.932-1.944 2.837-2.973a17.7 17.7 0 0 0 2.128-2.359 3.691 3.691 0 0 0 .975-.844 11.359 11.359 0 0 1 1.552-1.7 1.078 1.078 0 0 0 .513-.431c.233-.3.4-.684.73-.859a5.182 5.182 0 0 0 1.145-1.069c.719-.7 1.335-1.5 2.022-2.226a1.57 1.57 0 0 0 .547-.629c-.364.086-.574.384-.838.607-1.321 1.555-2.906 2.857-4.227 4.412a31.755 31.755 0 0 0-2.495 2.441c-.175.179.1.184.074.285a.915.915 0 0 0-.758.427c-.562.63-1.157 1.235-1.726 1.855a57.005 57.005 0 0 1-3.1 3.1 17.14 17.14 0 0 0-3.14 3.455c-.333-.078-.457.2-.624.383-.413.444-.725 1.045-1.222 1.333a8.535 8.535 0 0 0-1.875 1.771 26.3 26.3 0 0 1-2.525 2.615.347.347 0 0 0-.183.484.628.628 0 0 0-.484.231c-.532.592-1.046 1.195-1.611 1.76-1.114 1.116-2.141 2.319-3.236 3.454-.54.56-1.1 1.1-1.605 1.69v.69c.17-.224.426-.35.614-.567.654-.747 1.312-1.495 2.027-2.182z" data-color="1"></path>
        <path fill="#191919" d="M104.928 136.406c.069-.065.114-.155.181-.223.8-.809 1.469-1.726 2.327-2.487.387-.343.941-.673.964-1.327a.155.155 0 0 0-.025-.026l.024.028a2.517 2.517 0 0 0 1.1-.906c1.084-1.161 2.3-2.193 3.315-3.42.231-.279.51-.509.759-.767 1.1-1.136 2.246-2.223 3.258-3.441a8 8 0 0 0 1.161-1.135 22.814 22.814 0 0 1 2.763-2.872c.679-.7 1.343-1.426 2.055-2.1l1.587-1.811a3.548 3.548 0 0 0-1.7 1.7c-.132.107-.319.081-.448.225-1.09 1.225-2.286 2.346-3.428 3.52a15.431 15.431 0 0 0-2.16 2.33 7.147 7.147 0 0 0-1.589 1.51 55.809 55.809 0 0 1-4.059 4.152 27.994 27.994 0 0 0-2.7 2.875c-.294-.077-.383.126-.466.339-.082.076-.169.148-.244.23a10.738 10.738 0 0 1-1.354 1.449 20.621 20.621 0 0 0-1.933 1.9c-.58.563-.939 1.352-1.632 1.793-.6.382-.929 1-1.457 1.448s-.934 1.034-1.425 1.536c-1.11 1.133-2.156 2.329-3.228 3.5h.69a1.114 1.114 0 0 1 .172-.284c1.4-1.232 2.589-2.678 3.913-3.989 1.231-1.217 2.323-2.562 3.579-3.747z" data-color="1"></path>
        <path fill="#191919" d="M58.849 65.044a6.015 6.015 0 0 0-1.288 1.484 2.674 2.674 0 0 0-.572.449 19.771 19.771 0 0 0-1.754 1.923c-1.512 1.656-3.279 3.059-4.759 4.748-.459.524-1.137.87-1.3 1.628a.82.82 0 0 0-.609.323c-.49.456-.808 1.163-1.325 1.464a7.481 7.481 0 0 0-1.891 1.779c-1 1.193-2.189 2.192-3.2 3.354-1.209 1.384-2.584 2.611-3.726 4.055a1.252 1.252 0 0 1-.63.536v.691a58.2 58.2 0 0 0 4.638-4.747c.929-1.006 1.955-1.916 2.8-3.024.416-.547 1.055-1.014 1.535-1.564.735-.844 1.591-1.565 2.332-2.4a.491.491 0 0 0 .1-.452c.166.017.26-.1.373-.2 1.059-.893 1.981-1.934 2.943-2.918 1.261-1.291 2.537-2.574 3.752-3.91a6.165 6.165 0 0 0 1.465-1.714 4.209 4.209 0 0 0 1.167-1.034 5.5 5.5 0 0 1 .812-.976c.982-.8 1.8-1.779 2.728-2.635a12.678 12.678 0 0 0 2.068-2.35c.321-.082.426-.358.555-.613-.347-.018-.444.323-.675.47-.5.411-.844.968-1.314 1.418-1.44 1.371-2.834 2.795-4.225 4.215z" data-color="1"></path>
        <path fill="#191919" d="M63.2 138.052c0-.009-.067-.119-.1-.181.05-.016.112-.016.149-.048 1.285-1.136 2.435-2.41 3.649-3.617a93.236 93.236 0 0 0 2.719-2.838 14.526 14.526 0 0 0 2.119-2.36 3.089 3.089 0 0 0 .937-.79 11 11 0 0 1 1.593-1.739c.538-.264.687-.921 1.156-1.214a15.774 15.774 0 0 0 2.06-2.016 4.063 4.063 0 0 0 .809-1.031l.861-.788c.057-.044.117-.085.176-.126.213-.071.3-.257.383-.438.171 0 .235-.126.307-.252a.623.623 0 0 0 .3-.479c.241-.144.5-.268.6-.568.9-.992 1.876-1.913 2.829-2.847 1.223-1.2 2.5-2.355 3.638-3.624q1.288-1.434 2.6-2.843c.758-.816 1.62-1.561 2.458-2.31.816-.728 1.459-1.649 2.264-2.389 1.4-1.285 2.584-2.767 3.931-4.1 1.1-1.089 2.043-2.328 3.154-3.414.22-.215.642-.334.674-.744a.949.949 0 0 0 .572-.349q.622-.674 1.265-1.328c.692-.706 1.4-1.393 2.089-2.106.974-1.017 1.9-2.075 2.9-3.065.051-.052.1-.105.156-.156.893-.872 1.727-1.8 2.6-2.689.525-.536 1.052-1.132 1.577-1.668.854-.873 1.67-1.789 2.561-2.632 1.5-1.411 2.824-2.987 4.24-4.479 1.778-1.876 3.661-3.658 5.482-5.493 1.356-1.366 2.7-2.74 4.025-4.137 1.583-1.666 3.079-3.418 4.717-5.027 1.556-1.528 3.07-3.1 4.582-4.662.738-.765 1.484-1.518 2.234-2.274h-.846c-1.086 1.09-2.087 2.261-3.28 3.243a31.929 31.929 0 0 0-2.658 2.8c-1.374 1.45-2.824 2.832-4.178 4.293-1.5 1.625-3.123 3.139-4.582 4.809-.964 1.1-2.048 2.107-3.118 3.115-.314.3-.44.711-.765.969a14.307 14.307 0 0 0-2.2 2.168 55.643 55.643 0 0 1-4.165 4.4c-.4.394-.735.928-1.115 1.239-1.221 1.006-2.069 2.348-3.272 3.361-.646.545-1.131 1.283-1.736 1.9-.3.307-.607.616-.907.923a214.642 214.642 0 0 0-4.96 5.187c-.406.44-1.074.614-1.265 1.257-.437.12-.568.582-.888.809a20.049 20.049 0 0 0-2.186 2.156c-.992.951-1.867 2.023-2.827 3.012-.811.837-1.755 1.556-2.492 2.452-1.027 1.246-2.22 2.323-3.34 3.47-.992 1.015-1.95 2.06-2.933 3.081-1.1 1.146-2.158 2.342-3.214 3.533-.208.236-.451.433-.66.676-.632.735-1.347 1.4-2 2.119-.365.405-.967.605-1.077 1.232-.158.252-.767.168-.536.713l-.38.337c-.117.1-.28.158-.245.357-.188.027-.259.169-.328.318-.188-.018-.259.124-.337.252a2.609 2.609 0 0 0-.811.676 4.693 4.693 0 0 0-.838 1.031c-.346-.027-.351.33-.541.477a.6.6 0 0 0-.348.339 23.556 23.556 0 0 0-2.289 2.343 28.758 28.758 0 0 0-2.451 2.412c-.14.147-.055.218.018.314-.641.092-.962.642-1.335 1.05-1.079 1.184-2.16 2.366-3.31 3.477a25.375 25.375 0 0 0-2.459 2.438 9.039 9.039 0 0 1-.749.7 2.051 2.051 0 0 0-.767 1.205c-.411-.252-.52.181-.7.35a10.1 10.1 0 0 1-1.285 1.359 11.069 11.069 0 0 0-1.858 1.782 21.167 21.167 0 0 1-2.417 2.513c-.169.126-.417.27-.181.55h.577c.133-.158.264-.321.4-.477.529-.586.992-1.271 1.555-1.782.793-.717 1.48-1.512 2.2-2.288.161-.175.206-.443.474-.532.649-.222.807-.949 1.339-1.297z" data-color="1"></path>
        <path fill="#191919" d="M38.552 62.9c1.038-1.191 2.28-2.188 3.283-3.409.243-.3.555-.529.809-.8.458-.495.937-.973 1.411-1.454h-.449c-.669.756-1.409 1.445-2.112 2.169-.683.7-1.457 1.315-2.126 2.027a12.476 12.476 0 0 1-1.578 1.54v.575a6.247 6.247 0 0 0 .762-.648z" data-color="1"></path>
        <path fill="#191919" d="M43.3 87.39h-.008v.005z" data-color="1"></path>
        <path fill="#191919" d="M41.579 88.993c-1.246 1.275-2.524 2.517-3.788 3.773V93c.163.037.228-.108.324-.185.679-.548 1.2-1.273 1.856-1.817.857-.711 1.538-1.567 2.312-2.341a13.433 13.433 0 0 0 1-1.262c-.267.016-.423.212-.6.376-.4.371-.716.829-1.104 1.222z" data-color="1"></path>
        <path fill="#191919" d="M38.028 122.692a5.664 5.664 0 0 1 1.335-1.336c.3-.254.75-.462.731-.978.174.071.261-.064.387-.142a6.889 6.889 0 0 0 1.453-1.471c.891-.994 1.81-1.963 2.7-2.957.413-.463.859-.894 1.311-1.317a15.651 15.651 0 0 0 1.6-1.464 23.717 23.717 0 0 1 1.959-2.08c1.338-1.311 2.55-2.738 3.874-4.06.724-.721 1.37-1.519 2.064-2.27a8.743 8.743 0 0 0 1.092-1.132c.2-.32.658-.378.713-.8.231-.009.369-.174.531-.307a14.8 14.8 0 0 0 1.132-1.232c.829-.839 1.677-1.659 2.5-2.5.949-.978 1.842-2.016 2.827-2.955A23.258 23.258 0 0 1 66.8 93.11c.321-.222.376-.694.692-.875.575-.33.873-.905 1.331-1.333.156-.145.3-.3.449-.452.469-.492.905-1.017 1.406-1.471 1.487-1.351 2.809-2.856 4.167-4.325 1.609-1.736 3.345-3.34 4.946-5.079.539-.581 1.1-1.143 1.673-1.692.905-.871 1.739-1.808 2.621-2.695a22.1 22.1 0 0 0 1.869-1.931 38.947 38.947 0 0 1 3.106-3.322c1.68-1.692 3.3-3.438 5.029-5.088 1.074-1.026 2.046-2.158 3.1-3.2a89.082 89.082 0 0 0 2.768-2.866c.478-.52.962-1.033 1.448-1.546h-.775c-.485.554-.964 1.118-1.5 1.631-.939.889-1.75 1.977-2.712 2.815-1.515 1.322-2.7 2.971-4.319 4.17-.013.009-.016.034-.027.048a27.283 27.283 0 0 1-1.863 2c-1.624 1.714-3.289 3.393-4.925 5.093-1.526 1.583-3.1 3.125-4.559 4.779-1.047 1.186-2.229 2.256-3.372 3.354-.231.222-.243.549-.5.744a12.775 12.775 0 0 0-2.293 2.241 58.941 58.941 0 0 1-4.158 4.38c-.373.378-.948.6-1.019 1.234a5.722 5.722 0 0 0-.908.731c-.824.8-1.466 1.792-2.364 2.532a23.416 23.416 0 0 0-1.768 1.947c-1.338 1.39-2.706 2.751-4.019 4.167-.723.777-1.445 1.567-2.2 2.318-.3.3-.774.417-.921.88a24.838 24.838 0 0 0-3.1 3c-.969.958-1.8 2.06-2.81 2.971-1.474 1.334-2.756 2.843-4.161 4.238-.627.624-1.278 1.233-1.871 1.895-.617.687-1.269 1.342-1.9 2.014-.829.879-1.688 1.732-2.467 2.655a4.567 4.567 0 0 0-.978 1.2q-1.056 1.03-2.112 2.064v.461a.19.19 0 0 0 .224-.105z" data-color="1"></path>
        <path fill="#191919" d="M54.672 99.079c-1.61 1.79-3.371 3.431-5.048 5.155a12.075 12.075 0 0 0-1.83 1.99 4.236 4.236 0 0 0-1.083.975c-.973 1.021-1.868 2.121-2.882 3.1-1.036 1-2.143 1.92-3.08 3.018a2.563 2.563 0 0 1-.406.387 3.106 3.106 0 0 0-.951 1.248c-.342-.052-.483.224-.674.416a4.254 4.254 0 0 1-.927.87v.691a6.228 6.228 0 0 0 .65-.533 4.856 4.856 0 0 0 1.055-1.305c1.329-1.333 2.663-2.661 3.985-4 .907-.92 1.822-1.836 2.689-2.793a11.571 11.571 0 0 0 1.854-2.069 6.227 6.227 0 0 0 1.731-1.84 30.449 30.449 0 0 0 2.825-2.689 16.723 16.723 0 0 0 2.236-2.5 1.935 1.935 0 0 0 .6-.577c-.401-.103-.48.33-.744.456z" data-color="1"></path>
        <path fill="#191919" d="M116.607 64.46c-.909.937-1.817 1.877-2.781 2.754-1.017.928-1.686 2.181-2.848 2.964-.428.289-.572.85-1.044 1.095l-.005.008h.006c.084.235-.138.3-.255.384a3.713 3.713 0 0 0-1.17 1.228 1.179 1.179 0 0 1-.394.41 9.236 9.236 0 0 0-1.441 1.292c-.715.733-1.386 1.526-2.119 2.222-.793.754-1.606 1.487-2.339 2.3a49.506 49.506 0 0 1-1.876 2.009c-1.134 1.125-2.291 2.236-3.361 3.411-1.466 1.615-3.079 3.086-4.515 4.731-.358.407-.734.8-1.118 1.186-.589.589-1.2 1.157-1.794 1.737-.346.334-.536.815-.884 1.092a14.916 14.916 0 0 0-2.207 2.156 57.485 57.485 0 0 1-4.311 4.543c-.364.362-.662.861-1.006 1.136a34.067 34.067 0 0 0-3.163 3.267c-1.631 1.695-3.281 3.375-4.88 5.1-.735.792-1.56 1.5-2.234 2.355a5.035 5.035 0 0 1-1.12 1.132 1.9 1.9 0 0 0-.772.852c-.277-.042-.4.162-.561.33-.873.925-1.723 1.874-2.632 2.762-1.393 1.357-2.66 2.834-4.08 4.167-1.123 1.057-2.1 2.262-3.21 3.334-1.425 1.381-2.76 2.845-4.135 4.274a19.115 19.115 0 0 0-1.739 1.932c-.272.375-.843.55-.831 1.129a13.726 13.726 0 0 0-2.543 2.531 13.851 13.851 0 0 0-2.016 2.12c-.179.11-.447.13-.451.426.075.325-.239.385-.381.561-.135.059-.149.2-.213.309.11-.078.3.028.362-.162.186-.214.456-.372.445-.706a.246.246 0 0 1 .238-.144 8.759 8.759 0 0 0 .923-.985 9.546 9.546 0 0 0 1.43-1.384.683.683 0 0 0 .382-.325 1.767 1.767 0 0 1 .3-.415 14.135 14.135 0 0 0 1.917-1.808c.2-.08.174-.378.348-.426.692-.183.935-.863 1.338-1.305.91-1 1.831-2 2.763-2.974a29.048 29.048 0 0 1 2.408-2.224 25.009 25.009 0 0 0 1.962-2.08c.818-.869 1.629-1.755 2.472-2.589a17.035 17.035 0 0 1 1.714-1.858 12.447 12.447 0 0 0 1.668-1.862c.749-.834 1.58-1.6 2.375-2.39.181-.032.277-.183.41-.286a11.24 11.24 0 0 0 1.217-1.281c.7-.747 1.461-1.434 2.167-2.176 1.022-1.084 1.991-2.224 3.083-3.23.814-.747 1.451-1.645 2.3-2.373.662-.571 1.221-1.354 1.851-1.991.832-.836 1.634-1.712 2.49-2.529 1.5-1.434 2.855-3.013 4.273-4.529 1.636-1.748 3.347-3.432 5.044-5.121l.1-.1c1.477-1.477 2.907-3 4.407-4.453 1.214-1.178 2.305-2.479 3.459-3.716 1.215-1.3 2.511-2.511 3.737-3.8 2.6-2.728 5.255-5.413 7.876-8.126 1.5-1.548 2.971-3.118 4.46-4.673 1.622-1.693 3.237-3.388 4.877-5.061a153.312 153.312 0 0 0 3.215-3.392h-.708c-.736.861-1.6 1.589-2.337 2.435a30.944 30.944 0 0 1-2.131 2.229c-.861.811-1.599 1.728-2.412 2.571z" data-color="1"></path>
        <path fill="#191919" d="M122.229 64.8c-.289.117-.458.38-.691.566-.606.645-1.2 1.3-1.82 1.932a32 32 0 0 0-2.425 2.475 3.286 3.286 0 0 0-1.026 1.03 8.708 8.708 0 0 0-1.381 1.333c-.12.134-.186.233-.078.392a4.708 4.708 0 0 0 1.58-1.567l1.145-1.078c.574-.619 1.213-1.175 1.8-1.775a16.348 16.348 0 0 0 2.209-2.5 2.035 2.035 0 0 0 .7-.671.712.712 0 0 0 .463-.42c-.169.083-.398.051-.476.283z" data-color="1"></path>
        <path fill="#191919" d="M123.246 63.9c-.3 0-.422.224-.547.441.374.09.458-.179.547-.441z" data-color="1"></path>
        <path fill="#191919" d="M45.97 137.976c-.273-.039-.337.134-.361.349a3.3 3.3 0 0 0-1.625 1.6c-.39 0-.454.4-.7.57a.476.476 0 0 0-.211.232 25.054 25.054 0 0 0-2.329 2.415 6.767 6.767 0 0 0-1.345 1.279h.46c.163-.548.725-.732 1.04-1.141.523-.256.658-.9 1.114-1.182a15.956 15.956 0 0 0 2.1-2.057l1.5-1.711c.202-.03.287-.19.357-.354z" data-color="1"></path>
        <path fill="#191919" d="M103.941 142.817l-.113.018c-.059.031-.139.035-.158.119l.15.313a.464.464 0 0 0-.523.366c-.165.208-.452.3-.551.569a.812.812 0 0 0 .618-.476c.247-.056.359-.251.465-.451.28-.092.081-.304.112-.458z" data-color="1"></path>
        <path fill="#191919" d="M124.429 115.883c.208-.029.4-.075.4-.347l-.091-.007c-.163.071-.221.223-.309.354z" data-color="1"></path>
        <path fill="#191919" d="M69.788 137.2a11.521 11.521 0 0 0 1.439-1.32c.827-1.019 1.849-1.851 2.7-2.845a21.731 21.731 0 0 0 2.313-2.535 1.193 1.193 0 0 1 .405-.463 6.64 6.64 0 0 0 1.739-1.775 23.826 23.826 0 0 1 2.247-2.358c.786-.671 1.487-1.416 2.206-2.139 1.691-1.7 3.288-3.506 5.017-5.166.809-.777 1.5-1.659 2.339-2.413a31.594 31.594 0 0 0 2.284-2.405q.921-1.017 1.888-1.991c.724-.731 1.5-1.406 2.19-2.178.793-.9 1.583-1.8 2.419-2.651 1.808-1.849 3.675-3.64 5.459-5.51 1.863-1.949 3.835-3.789 5.595-5.844.909-1.058 1.931-2.038 2.909-3.046.69-.713 1.395-1.407 2.1-2.106.912-.9 1.819-1.8 2.687-2.735 1.853-2 3.842-3.867 5.7-5.865 1.388-1.491 2.809-2.953 4.218-4.426 1.356-1.42 2.721-2.831 4.075-4.254.63-.66 1.189-1.393 1.869-1.993 1.031-.909 1.812-2.046 2.837-2.96.833-.744 1.429-1.716 2.332-2.421a2.649 2.649 0 0 0 .959-1.217 125.79 125.79 0 0 0 4.076-4.091c.861-.914 1.771-1.782 2.612-2.712.169-.188.35-.367.536-.543h-.612a6.954 6.954 0 0 0-.305.375 20.13 20.13 0 0 1-2.071 2.252 38.456 38.456 0 0 0-4.485 4.708.372.372 0 0 0-.131-.025c-.208 0-.3.217-.417.346-.424.46-.744 1.088-1.26 1.379a6.947 6.947 0 0 0-1.853 1.768c-.983 1.192-2.14 2.19-3.175 3.313-.582.628-1.141 1.276-1.741 1.888-.816.836-1.567 1.734-2.378 2.575-.946.98-1.9 1.958-2.9 2.879s-1.789 2.018-2.774 2.958a38.987 38.987 0 0 0-2.578 2.712c-.714.829-1.615 1.5-2.4 2.284-.456.454-.788 1.031-1.276 1.427a19.259 19.259 0 0 0-2.442 2.378c-.06.067-.117.133-.174.2a25.385 25.385 0 0 1-1.806 1.906 72.018 72.018 0 0 0-3.2 3.248c-1.519 1.647-3.162 3.175-4.639 4.864-.93 1.06-1.973 2.025-3 2.994-.328.311-.47.772-.795 1.017a13.674 13.674 0 0 0-2.167 2.112 43.755 43.755 0 0 1-4.348 4.545c-.63.561-1.109 1.242-1.707 1.826-1.487 1.448-2.831 3.038-4.261 4.545q-2.894 3.056-5.832 6.062c-.573.586-1.24 1.079-1.819 1.658-.949.953-1.84 1.968-2.8 2.912-1.17 1.152-2.192 2.444-3.418 3.539-1.053.94-1.915 2.06-2.907 3.05-1.026 1.021-2.073 2.027-3.081 3.067-.87.9-1.723 1.812-2.566 2.733-.339.373-.685.74-.994 1.148s-.742.731-1.033 1.168c-.387.5-.987.8-1.3 1.377h.575q.519-.577 1.033-1.155c.529-.449.967-1 1.464-1.461 1-.944 1.785-2.085 2.82-3 .566-.501 1.026-1.117 1.603-1.61z" data-color="1"></path>
        <path fill="#191919" d="M131.033 103.249c1.156-1.1 2.228-2.281 3.331-3.434.2-.206.38-.426.584-.625a65.695 65.695 0 0 0 3.4-3.541c.314-.451.854-.676 1.159-1.125a8.3 8.3 0 0 1 1.023-1.2c.668-.479 1.09-1.226 1.716-1.711.791-.611 1.358-1.409 2.08-2.068a3.057 3.057 0 0 0 .7-.905c.289-.251.649-.432.8-.816a.931.931 0 0 0 .573-.457.5.5 0 0 0-.57.4 2.116 2.116 0 0 0-.919.749 2.171 2.171 0 0 0-.7.915c-.547.186-.77.727-1.175 1.07-.942.8-1.721 1.76-2.6 2.618a21.162 21.162 0 0 0-2.335 2.401 17.2 17.2 0 0 0-1.486 1.471 53.738 53.738 0 0 1-4.064 4.147c-.862.868-1.732 1.727-2.538 2.648a.32.32 0 0 0-.08.357c.496-.128.768-.579 1.101-.894z" data-color="1"></path>
        <path fill="#191919" d="M129.93 104.15v-.007h-.013l.006.007h.01z" data-color="1"></path>
        <path fill="#191919" d="M146.609 86.888c-.118.095-.264.182-.1.357a.359.359 0 0 0 .251-.208.7.7 0 0 0 .31-.479.147.147 0 0 1-.075 0c-.058.195-.287.187-.386.33z" data-color="1"></path>
        <path fill="#191919" d="M123.427 69.008c-.836.8-1.647 1.642-2.421 2.5-.738.816-1.542 1.567-2.257 2.408-1.125 1.331-2.554 2.371-3.654 3.734-.832 1.031-1.851 1.883-2.772 2.825-1.155 1.179-2.25 2.412-3.418 3.573-.465.463-.87.978-1.294 1.471-.291.339-.763.548-.873 1.038a30.448 30.448 0 0 0-2.449 2.529 4.78 4.78 0 0 0-.9.914c-.163.163-.369.3-.552.451a1.231 1.231 0 0 0-.514.8c-.162.085-.419.062-.419.335v.025c-.153.181-.14.469-.378.595-.252.051-.339.252-.426.456-.13.179-.447.167-.465.458l.067.042c.21-.085.421-.172.462-.438a.489.489 0 0 0 .365-.3c.215-.233.492-.435.46-.811.222.145.346.09.36-.181.332-.327.662-.655.994-.985l1.271-1.257a7.925 7.925 0 0 1 1.212-1.217 8.251 8.251 0 0 0 1.217-1.212c.284-.252.584-.49.847-.763a19.137 19.137 0 0 0 1.528-1.647 24.879 24.879 0 0 1 1.856-1.97 22.138 22.138 0 0 1 1.684-1.7 10.133 10.133 0 0 0 1.358-1.273c.706-.862 1.535-1.6 2.3-2.4.552-.581 1.1-1.166 1.681-1.718.532-.5.885-1.235 1.428-1.665a17.168 17.168 0 0 0 1.775-1.84c.843-.9 1.654-1.823 2.577-2.641.539-.477 1-1.031 1.494-1.54.976-1 2.009-1.954 2.967-2.98a82.399 82.399 0 0 1 2.513-2.609c.884-.869 1.722-1.78 2.581-2.667.539-.554 1.073-1.157 1.606-1.716l.378-.4h-.716c-1.244 1.326-2.5 2.646-3.739 3.974-1.929 2.062-3.926 4.062-5.873 6.1-.588.616-1.259 1.122-1.861 1.702z" data-color="1"></path>
        <path fill="#191919" d="M128.705 135.224l.2-.236a11.949 11.949 0 0 0 1.673-1.766c.986-.948 1.986-1.884 2.941-2.862.791-.81 1.526-1.674 2.285-2.513l.46-.442c-.326-.127-.438.13-.585.327-.778.507-1.2 1.366-1.926 1.93-.12-.008-.17.053-.163.168-.957.961-1.923 1.914-2.866 2.888a27.745 27.745 0 0 0-2.079 2.149c-.1.036-.1.12-.094.205a2.7 2.7 0 0 0-.419.288c-1.549 1.55-2.906 3.287-4.595 4.7-.982.824-1.748 1.866-2.709 2.716a1.412 1.412 0 0 0-.651 1.067.77.77 0 0 0-.82.577h.69c.008-.218.264-.341.221-.578a10.086 10.086 0 0 0 1.056-.928c1.021-1.175 2.247-2.152 3.236-3.357a7.037 7.037 0 0 1 .58-.628 57.443 57.443 0 0 0 3.565-3.705z" data-color="1"></path>
        <path fill="#191919" d="M136.724 126.754l-.437.494a.467.467 0 0 0 .447-.307 1.592 1.592 0 0 0 .523-.47.407.407 0 0 0-.533.283z" data-color="1"></path>
        <path fill="#191919" d="M89.912 80.238a.06.06 0 0 0-.044.029c-.014.02 0 .038.046.056v.357a.309.309 0 0 0 .159-.484c-.081-.075-.128-.042-.161.042z" data-color="1"></path>
        <path fill="#191919" d="M89.772 80.808c-.3.013-.469.149-.44.471l.035-.007a.739.739 0 0 0 .405-.464z" data-color="1"></path>
        <path fill="#191919" d="M55.5 98.445c.268.005.453-.088.471-.384.285-.017.387-.212.44-.457-.329-.026-.425.177-.447.45a.558.558 0 0 0-.464.391z" data-color="1"></path>
        <path fill="#191919" d="M149.04 137.867c-.358-.041-.485.2-.58.478a.634.634 0 0 0 .58-.478z" data-color="1"></path>
        <path fill="#191919" d="M148.334 138.448l-.437.357a.463.463 0 0 0-.358.437 1.827 1.827 0 0 0-1.126 1.157 1.913 1.913 0 0 0-.472.294c-1.1 1.246-2.352 2.336-3.489 3.541-.05.053-.119.1-.084.188h.345a12.315 12.315 0 0 1 1.625-1.721 24.161 24.161 0 0 0 2.181-2.171l1.121-1.288c.177-.055.239-.232.363-.343a.512.512 0 0 0 .331-.451z" data-color="1"></path>
        <path fill="#191919" d="M71.249 76.194a33.406 33.406 0 0 0 2.9-2.742A13.631 13.631 0 0 0 76.327 71a2.32 2.32 0 0 0 .7-.664.674.674 0 0 0 .452-.448c-.174.072-.377.1-.465.3-.3.1-.467.359-.687.555-.811.844-1.617 1.693-2.433 2.531-.91.934-1.829 1.858-2.744 2.786a17.511 17.511 0 0 0-1.493 1.467c-.155.187-.171.287 0 .429a6.255 6.255 0 0 0 1.592-1.762z" data-color="1"></path>
        <path fill="#191919" d="M77.983 69.411c-.325-.191-.333.079-.394.271.228.049.338-.071.394-.271z" data-color="1"></path>
        <path fill="#191919" d="M43.987 86.653c-.115.136-.332.19-.335.416.2-.027.389-.064.456-.294.111-.229.437-.278.474-.568-.351-.056-.421.264-.595.446z" data-color="1"></path>
        <path fill="#191919" d="M43.416 87.134c-.066.072-.215.106-.118.251.202-.005.244-.085.118-.251z" data-color="1"></path>
        <path fill="#191919" d="M43.3 87.39l-.002-.005-.006.001.008.004z" data-color="1"></path>
        <path fill="#191919" d="M66.194 57.911c-.513.053-.637.53-.914.839a1.762 1.762 0 0 0 .914-.839z" data-color="1"></path>
        <path fill="#191919" d="M161.788 59.1c-.969 1.006-1.943 2.011-2.965 2.964-.978.912-1.7 2.048-2.765 2.894-.669.531-1.095 1.351-1.83 1.855-.147.1-.222.305-.339.454a2.912 2.912 0 0 1-.523.6 11.29 11.29 0 0 0-1.528 1.377c-.691.7-1.324 1.478-2.036 2.138-.8.749-1.592 1.5-2.344 2.3-.639.68-1.253 1.388-1.915 2.048-1.1 1.1-2.215 2.2-3.271 3.338-1.5 1.615-3.093 3.131-4.566 4.769-.932 1.034-1.947 1.993-2.951 2.96-.334.323-.508.784-.843 1.052a14.7 14.7 0 0 0-2.206 2.162c-.119.147-.238.291-.359.433a49.856 49.856 0 0 1-3.977 4.1c-.608.573-1.107 1.235-1.7 1.819-1.477 1.453-2.822 3.04-4.251 4.541-1.934 2.034-3.925 4.013-5.833 6.07-.454.488-1.164.731-1.386 1.435a.733.733 0 0 0-.568.336c-.836.949-1.73 1.849-2.623 2.736-1.132 1.12-2.117 2.375-3.338 3.415-1.253 1.068-2.24 2.408-3.427 3.551s-2.3 2.353-3.43 3.542c-1 1.056-2.032 2.091-2.964 3.2-.293.35-.848.561-.832 1.147a12.909 12.909 0 0 0-2.522 2.507c-.369.117-.426.529-.724.747a2.944 2.944 0 0 0-1.056 1 1.515 1.515 0 0 1-.527.557c-.368.149-.167.465-.21.71-.385-.108-.461.211-.6.44-.163.147-.456.179-.435.486a2.193 2.193 0 0 0-1.022.808 2.3 2.3 0 0 0-.706.914c-.089.021-.215.014-.263.069-1.184 1.347-2.52 2.541-3.759 3.83a13.621 13.621 0 0 0-1.744 1.849c-1.271 1.047-2.2 2.431-3.427 3.528a1.174 1.174 0 0 0-.465.621h.342c.678-.7 1.377-1.391 2.028-2.117a12.218 12.218 0 0 0 1.654-1.844 7.846 7.846 0 0 0 1.532-1.583c.683-.781 1.457-1.48 2.2-2.192.69-.665 1.315-1.4 2.025-2.037a3.079 3.079 0 0 0 .7-.9 3.139 3.139 0 0 0 .912-.942c.233-.091.474-.174.524-.469a.709.709 0 0 0 .513-.454.529.529 0 0 0 .239-.518c.16.064.24.014.371-.121.362-.378.669-.8 1.063-1.164A4.2 4.2 0 0 0 94.727 129c.419-.142.5-.593.8-.861a7.8 7.8 0 0 0 1.743-1.7 11.08 11.08 0 0 0 1.847-1.769c.662-.6 1.092-1.436 1.8-2 .664-.538 1.132-1.253 1.773-1.816.566-.5 1.148-.988 1.666-1.535.879-.928 1.786-1.83 2.652-2.767.882-.951 1.84-1.829 2.656-2.846.634-.79 1.454-1.431 2.1-2.213.794-.957 1.7-1.8 2.542-2.71a1.566 1.566 0 0 0 .591-.437c.818-.88 1.622-1.778 2.486-2.61 1.6-1.544 3.129-3.159 4.639-4.79a20.058 20.058 0 0 0 2.023-2.062 11.779 11.779 0 0 1 1.452-1.555c.866-.878 1.684-1.808 2.589-2.651 1.418-1.319 2.664-2.808 3.986-4.222l.2-.213c1.643-1.741 3.35-3.425 5.04-5.118 1.535-1.535 3.047-3.092 4.578-4.632s2.932-3.186 4.435-4.744c1.773-1.842 3.656-3.585 5.379-5.473 1.544-1.695 3.257-3.214 4.769-4.944.9-1.035 1.92-2 2.912-2.978 1.11-1.086 2.171-2.22 3.235-3.352v-.781c-.278.292-.552.589-.832.879z" data-color="1"></path>
        <path fill="#191919" d="M161.367 118.7c-.824.687-1.388 1.61-2.167 2.339-.8.754-1.507 1.619-2.366 2.314-.96.778-1.67 1.8-2.609 2.6-.308.262-.676.577-.588 1.09-.372-.1-.6.127-.812.373a6.211 6.211 0 0 1-1.218 1.351 7.7 7.7 0 0 0-1.89 1.8c-1 1.206-2.172 2.229-3.221 3.376-1 1.088-2.047 2.125-3.023 3.227a55.735 55.735 0 0 1-3.837 3.94c-1.116 1.037-1.934 2.357-3.135 3.315h.805q1.681-1.752 3.362-3.5 1.758-1.836 3.512-3.676c1.564-1.641 3.108-3.3 4.7-4.914.353-.358.422-.945.953-1.131a1.389 1.389 0 0 0 .521-.429 32.251 32.251 0 0 1 2.265-2.4 2.7 2.7 0 0 0 1.028-1.313 4.549 4.549 0 0 0 1.03-.93c1.119-1.241 2.4-2.321 3.484-3.595.589-.691 1.272-1.3 1.908-1.956a15.786 15.786 0 0 0 2.043-2.264 5.907 5.907 0 0 0 .5-.4v-.54a4.56 4.56 0 0 0-.714.93 1.663 1.663 0 0 0-.531.393z" data-color="1"></path>
        <path fill="#191919" d="M161.563 112.655a15.852 15.852 0 0 0-2.739 2.9.367.367 0 0 0-.45.236 31.88 31.88 0 0 1-3.452 3.594c-1.318 1.091-2.193 2.621-3.654 3.552-.028.018-.038.064-.061.093a26.538 26.538 0 0 1-1.861 2c-1.563 1.631-3.148 3.245-4.713 4.871-1.588 1.651-3.222 3.263-4.751 4.977-1.37 1.535-2.894 2.932-4.324 4.417-1.135 1.18-2.265 2.361-3.318 3.615-.438.522-.917 1.01-1.376 1.513h.69c.913-1.011 1.787-2.06 2.746-3.026 1.738-1.75 3.475-3.5 5.192-5.272 1.441-1.487 2.945-2.914 4.377-4.409 1.463-1.527 2.808-3.171 4.323-4.641 1.619-1.569 3.177-3.2 4.747-4.811 2.06-2.115 4.166-4.188 6.174-6.355 1.151-1.242 2.329-2.46 3.5-3.681v-.756c-.146.149-.29.3-.432.452-.22.236-.357.556-.618.731z" data-color="1"></path>
        <path fill="#191919" d="M158.36 109.7c-.322.308-.468.768-.8 1.015a13.051 13.051 0 0 0-2.133 2.073 61.024 61.024 0 0 1-4.233 4.485c-.414.406-.989.679-1.119 1.326-1.341.906-2.168 2.326-3.374 3.378-.622.542-1.1 1.258-1.693 1.861-1.958 2-3.889 4.034-5.85 6.036-.564.577-1.213 1.072-1.784 1.642-.957.957-1.884 1.944-2.823 2.918-1.165 1.208-2.242 2.5-3.491 3.629-.989.89-1.8 1.941-2.736 2.875-1.153 1.155-2.329 2.288-3.446 3.48h.805a8.927 8.927 0 0 1 1.324-1.341 11.4 11.4 0 0 0 1.553-1.515c.568-.727 1.294-1.3 1.918-1.976a25.791 25.791 0 0 1 1.782-1.867c.55-.483.831-1.214 1.416-1.6a10.841 10.841 0 0 0 1.775-1.869c.569-.6 1.139-1.209 1.719-1.8s1.288-1.12 1.863-1.743c.771-.834 1.566-1.642 2.362-2.45 1.182-1.2 2.3-2.461 3.5-3.642.937-.921 1.815-1.9 2.736-2.834.5-.506.993-1.08 1.5-1.578.927-.915 1.763-1.917 2.723-2.8 1.448-1.333 2.685-2.87 4.045-4.288 1.671-1.742 3.4-3.426 5.079-5.166.537-.557 1.085-1.1 1.636-1.647v-.958c-.42.431-.831.87-1.223 1.328a42.527 42.527 0 0 1-3.031 3.028z" data-color="1"></path>
        <path fill="#191919" d="M159.717 102.539a11.721 11.721 0 0 1-1.377 1.343c-.648.65-1.269 1.328-1.927 1.97-.964.939-1.766 2.048-2.756 2.957-1.491 1.368-2.806 2.9-4.254 4.312-1.1 1.07-2.137 2.21-3.2 3.315a83.256 83.256 0 0 0-3.415 3.713 41.63 41.63 0 0 1-1.964 2.147c-1.17 1.184-2.364 2.346-3.457 3.6a.31.31 0 0 0 .479-.094 9.805 9.805 0 0 1 1.6-1.654c.664-.561 1.081-1.374 1.794-1.86a22.186 22.186 0 0 0 2.274-2.156 11.245 11.245 0 0 0 1.464-1.58 24.057 24.057 0 0 1 1.739-1.842 22.279 22.279 0 0 1 2.016-2.014 9.506 9.506 0 0 0 .877-.8c.743-.783 1.448-1.6 2.2-2.373a35.368 35.368 0 0 0 3.109-3.31c.124-.163.236-.383.405-.454.525-.224.752-.726 1.109-1.1.765-.806 1.466-1.684 2.273-2.446.928-.878 1.883-1.73 2.767-2.653q.575-.6 1.146-1.2v-.669q-.962 1-1.913 2c-.306.333-.733.491-.989.848z" data-color="1"></path>
        <path fill="#191919" d="M160.4 96.042a7.416 7.416 0 0 0-1.469 1.666c-.584-.094-.3.24-.229.469-.252.051-.467.129-.352.454a.562.562 0 0 0-.557.458.788.788 0 0 0 .566-.451.611.611 0 0 0 .362-.33.5.5 0 0 0 .215-.589.738.738 0 0 0 .573-.288 7.187 7.187 0 0 1 .836-.924 8.094 8.094 0 0 0 1.528-1.468 6 6 0 0 1 .738-.818V93.8c-.219.213-.439.424-.665.628-.552.506-.946 1.142-1.546 1.614z" data-color="1"></path>
        <path fill="#191919" d="M161.311 89.135a4.718 4.718 0 0 0-1.5 1.315c-.112.135-.222.271-.332.4-1.015 1.207-2.163 2.268-3.244 3.4-.573.6-1.118 1.237-1.695 1.84-.834.872-1.625 1.789-2.47 2.652-.928.944-1.8 1.943-2.806 2.809-1.029.882-1.78 2.018-2.775 2.948-.9.841-1.747 1.774-2.574 2.708-.752.848-1.654 1.576-2.488 2.362-.488.463-.77 1.111-1.3 1.492a15.388 15.388 0 0 0-2.435 2.35 54.865 54.865 0 0 1-1.752 1.89c-1.182 1.2-2.452 2.332-3.558 3.6-1.388 1.59-2.987 2.969-4.36 4.572a39.479 39.479 0 0 1-3.161 3.15c-.307.287-.4.7-.712.947a14.728 14.728 0 0 0-2.355 2.327 55.625 55.625 0 0 1-4.17 4.364c-.35.346-.63.852-.951 1.1a28.668 28.668 0 0 0-3.241 3.338c-1.789 1.938-3.7 3.755-5.464 5.718h.692c.964-1.008 1.908-2.039 2.9-3.024a30.669 30.669 0 0 1 2.795-2.825c.236-.181.211-.543.488-.687.566-.293.843-.882 1.308-1.281.657-.559 1.157-1.278 1.775-1.873.77-.745 1.551-1.474 2.275-2.262.859-.932 1.707-1.874 2.589-2.783.621-.639 1.235-1.281 1.881-1.9 1.017-.967 1.908-2.062 2.93-3.021 1.6-1.5 3.095-3.1 4.613-4.676 1.467-1.519 2.859-3.118 4.349-4.616 1.631-1.638 3.193-3.345 4.872-4.939 1.148-1.089 2.124-2.355 3.3-3.425.868-.788 1.642-1.663 2.446-2.513q2.166-2.286 4.342-4.557c1.569-1.626 3.17-3.223 4.721-4.866 1.23-1.3 2.4-2.666 3.7-3.9.069-.064.108-.158.172-.227q.267-.293.531-.6a15.827 15.827 0 0 1 1.5-1.569 4.038 4.038 0 0 0 .47-.5V87.7a4.584 4.584 0 0 0-.362.375c-.312.366-.555.868-.944 1.06z" data-color="1"></path>
        <path fill="#191919" d="M161.013 83.284a39.772 39.772 0 0 0-2.962 3.15c-1.095 1.107-2.165 2.241-3.248 3.359l-.637.657c-1.519 1.56-3.047 3.116-4.518 4.726-1.377 1.508-2.845 2.933-4.293 4.374-1.6 1.6-3 3.374-4.588 4.98-.3.3-.679.474-.963.772-.751.788-1.507 1.578-2.224 2.392-1.074 1.216-2.289 2.3-3.313 3.555-.24.3-.51.571-.776.843-1.748 1.789-3.556 3.523-5.228 5.379-1.008 1.116-2.142 2.085-3.212 3.125-.687.666-1.319 1.381-2 2.055-1.033 1.028-1.977 2.149-3.02 3.175q-.972.951-1.91 1.938c-.6.621-1.155 1.276-1.757 1.89-.529.541-1.12 1.024-1.647 1.569-.956.992-1.854 2.039-2.83 3.008-1.058 1.052-1.99 2.209-3 3.3-.168.082-.2.273-.333.4a24.171 24.171 0 0 0-2.233 2.337 1.639 1.639 0 0 0-.344.274c-.552.754-1.374 1.254-1.915 2.016.112.074.133.337.371.069.358-.4.713-.809 1.1-1.182.317-.3.727-.529.926-.948.79-.972 1.885-1.638 2.648-2.637.38-.33.763-.662 1.143-.994.161-.138.14-.369.328-.518 1.067-.843 1.789-2.018 2.8-2.923.575-.516 1.063-1.127 1.636-1.657a11.256 11.256 0 0 0 1.569-1.486 14.412 14.412 0 0 1 1.814-1.911c1.327-1.262 2.47-2.692 3.812-3.936.665-.616 1.2-1.367 1.81-2.043.852-.946 1.764-1.826 2.7-2.685 1-.912 1.92-1.92 2.862-2.9 1.156-1.2 2.279-2.43 3.459-3.6.932-.928 1.748-1.966 2.769-2.807.234-.194.326-.588.575-.733.557-.323.837-.886 1.286-1.3.625-.579 1.138-1.28 1.77-1.853 1.641-1.487 3.052-3.184 4.571-4.781 1.661-1.75 3.372-3.457 5.081-5.159 1.489-1.487 2.937-3.013 4.444-4.479a41.063 41.063 0 0 0 1.586-1.645c.646-.7 1.278-1.413 1.924-2.112 1.5-1.62 3.12-3.111 4.607-4.737.3-.332.622-.647.944-.96v-.892a16.157 16.157 0 0 1-1.584 1.535z" data-color="1"></path>
        <path fill="#191919" d="M159.765 78.886c-1.237 1.067-2.209 2.371-3.377 3.493-.777.75-1.475 1.6-2.236 2.383-1.766 1.819-3.551 3.624-5.273 5.484a2.19 2.19 0 0 1-.216.2 3.865 3.865 0 0 0-1.113 1.082 7.846 7.846 0 0 0-1.352 1.262c-.646.6-1.214 1.276-1.823 1.913-1.13 1.177-2.238 2.375-3.4 3.516-.775.761-1.563 1.5-2.271 2.325-.73.85-1.576 1.588-2.366 2.378-1.026 1.027-2.014 2.1-3 3.159-.956 1.024-1.927 2.037-2.82 3.111-.518.621-1.139 1.13-1.659 1.742a10.939 10.939 0 0 0-1.457 1.7 4.733 4.733 0 0 0-1.633 1.629.222.222 0 0 0 .169.167q.79-.828 1.585-1.654a11.326 11.326 0 0 0 1.565-1.622c.284-.286.658-.444.921-.737.772-.864 1.668-1.613 2.421-2.481.869-1 1.781-1.957 2.665-2.937a7.983 7.983 0 0 1 1.255-1.288 9.219 9.219 0 0 0 1.585-1.429c.653-.719 1.315-1.446 2.007-2.115 1.363-1.321 2.573-2.783 3.922-4.114.786-.777 1.48-1.643 2.234-2.451.552-.6 1.134-1.169 1.7-1.75.231-.023.357-.2.5-.349q.5-.528 1.012-1.056.567-.591 1.137-1.175c.959-.985 1.951-1.943 2.87-2.964.447-.5.928-.953 1.388-1.428.866-.893 1.728-1.8 2.6-2.7.522-.541 1.054-1.132 1.578-1.67.891-.916 1.746-1.876 2.683-2.754.361-.337.711-.686 1.054-1.041v-.8c-.565.571-1.138 1.134-1.709 1.7-.411.405-.752.93-1.146 1.271z" data-color="1"></path>
        <path fill="#191919" d="M160.819 71.672c-1 1.246-2.2 2.279-3.292 3.42-.981 1.022-1.938 2.071-2.937 3.077a21.086 21.086 0 0 0-1.806 1.988c-.265.344-.712.534-.829.992a1.846 1.846 0 0 1-.206.268 17.179 17.179 0 0 0-2.295 2.36 13.115 13.115 0 0 1-1.166 1.145 7.853 7.853 0 0 0-1.134 1.3c.126-.035.245.172.389-.037.63-.921 1.585-1.537 2.289-2.392.355-.126.41-.517.666-.746a8.39 8.39 0 0 0 1.757-1.687c.525-.432.951-.975 1.437-1.424 1-.926 1.75-2.069 2.8-2.947.621-.522 1.081-1.223 1.734-1.736a7 7 0 0 0 1.368-1.287 27.581 27.581 0 0 1 1.954-2.1c.348-.386.708-.762 1.07-1.136v-.857a17.482 17.482 0 0 0-1.799 1.799z" data-color="1"></path>
        <path fill="#191919" d="M161.912 64.917c-.623.632-1.238 1.273-1.875 1.891-.175.169.036.213.045.318a9.472 9.472 0 0 0 1.968-2.069c.276-.05.334-.364.565-.469v-.357c-.075.082-.15.161-.224.244z" data-color="1"></path>
        <path fill="#191919" d="M160.791 142.913c-.428.595-1.079.938-1.511 1.509h.805c.542-.611 1.066-1.238 1.636-1.821.138-.14.314-.26.459-.41s.293-.314.435-.474v-.783a6.956 6.956 0 0 0-.595.641c-.358.446-.88.851-1.229 1.338z" data-color="1"></path>
        <path fill="#191919" d="M160.388 137.312c-.966 1.055-1.933 2.125-2.97 3.089-1.373 1.276-2.521 2.752-3.89 4.021h.92c.273-.558.847-.817 1.243-1.253 1.421-1.562 2.784-3.182 4.285-4.66q1.331-1.308 2.639-2.636v-.925c-.801.74-1.497 1.567-2.227 2.364z" data-color="1"></path>
        <path fill="#191919" d="M161.851 130a37.186 37.186 0 0 0-3.287 3.4c-1.491 1.563-2.994 3.117-4.489 4.677-.751.784-1.534 1.545-2.243 2.36-.746.857-1.635 1.541-2.42 2.342a7.9 7.9 0 0 0-1.522 1.649h.691a3.787 3.787 0 0 1 1.157-1.236 14.767 14.767 0 0 0 1.717-1.73c.693-.753 1.509-1.395 2.187-2.16 1.011-1.14 2.088-2.213 3.151-3.3.879-.9 1.712-1.838 2.611-2.718.535-.522 1.044-1.133 1.574-1.666.557-.559 1.091-1.143 1.637-1.714v-.793a7.4 7.4 0 0 1-.764.889z" data-color="1"></path>
        <path fill="#191919" d="M161.588 124.241c-.935.836-1.816 1.734-2.673 2.635-1.36 1.429-2.754 2.836-4.024 4.345a43.742 43.742 0 0 1-2.616 2.809c-.543.541-.991 1.168-1.584 1.666a10.239 10.239 0 0 0-1.515 1.665c.133-.106.252.23.413-.009a9.92 9.92 0 0 1 1.7-1.8 20.41 20.41 0 0 1 1.711-1.785c.907-.623 1.438-1.627 2.393-2.176.24-.138.19-.468.422-.646 1.062-.814 1.75-1.99 2.768-2.863.6-.515 1.057-1.2 1.686-1.707a8 8 0 0 0 1.374-1.272 13.327 13.327 0 0 1 .971-1.122v-.857a12.032 12.032 0 0 1-1.026 1.117z" data-color="1"></path>
    </g>
</svg>